<?xml version="1.0" encoding="utf-8" standalone="no"?>
<!DOCTYPE svg PUBLIC "-//W3C//DTD SVG 1.1//EN"
  "http://www.w3.org/Graphics/SVG/1.1/DTD/svg11.dtd">
<svg xmlns:xlink="http://www.w3.org/1999/xlink" width="637.953625pt" height="347.170062pt" viewBox="0 0 637.953625 347.170062" xmlns="http://www.w3.org/2000/svg" version="1.1">
 <metadata>
  <rdf:RDF xmlns:dc="http://purl.org/dc/elements/1.1/" xmlns:cc="http://creativecommons.org/ns#" xmlns:rdf="http://www.w3.org/1999/02/22-rdf-syntax-ns#">
   <cc:Work>
    <dc:type rdf:resource="http://purl.org/dc/dcmitype/StillImage"/>
    <dc:date>2026-03-28T11:34:59.850874</dc:date>
    <dc:format>image/svg+xml</dc:format>
    <dc:creator>
     <cc:Agent>
      <dc:title>Matplotlib v3.10.8, https://matplotlib.org/</dc:title>
     </cc:Agent>
    </dc:creator>
   </cc:Work>
  </rdf:RDF>
 </metadata>
 <defs>
  <style type="text/css">*{stroke-linejoin: round; stroke-linecap: butt}</style>
 </defs>
 <g id="figure_1">
  <g id="patch_1">
   <path d="M -0 347.170062 
L 637.953625 347.170062 
L 637.953625 0 
L -0 0 
z
" style="fill: #fafafa"/>
  </g>
  <g id="axes_1">
   <g id="patch_2">
    <path d="M 52.235625 308.621937 
L 630.753625 308.621937 
L 630.753625 37.877937 
L 52.235625 37.877937 
z
" style="fill: #fafafa"/>
   </g>
   <g id="line2d_1">
    <path d="M 52.235625 61.420894 
L 630.753625 61.420894 
" clip-path="url(#p238e84daa9)" style="fill: none; stroke-dasharray: 2.96,1.28; stroke-dashoffset: 0; stroke: #bbbbbb; stroke-width: 0.8"/>
   </g>
   <g id="line2d_2">
    <path d="M 52.235625 179.135677 
L 630.753625 179.135677 
" clip-path="url(#p238e84daa9)" style="fill: none; stroke-dasharray: 0.8,1.32; stroke-dashoffset: 0; stroke: #bbbbbb; stroke-width: 0.8"/>
   </g>
   <g id="line2d_3">
    <path d="M 52.235625 296.850459 
L 630.753625 296.850459 
" clip-path="url(#p238e84daa9)" style="fill: none; stroke-dasharray: 2.96,1.28; stroke-dashoffset: 0; stroke: #bbbbbb; stroke-width: 0.8"/>
   </g>
   <g id="matplotlib.axis_1">
    <g id="xtick_1">
     <g id="line2d_4">
      <defs>
       <path id="m9ac248adb9" d="M 0 0 
L 0 3.5 
" style="stroke: #000000; stroke-width: 0.8"/>
      </defs>
      <g>
       <use xlink:href="#m9ac248adb9" x="52.235625" y="308.621937" style="stroke: #000000; stroke-width: 0.8"/>
      </g>
     </g>
     <g id="text_1">
      <!-- 0 -->
      <g transform="translate(49.054375 323.220375) scale(0.1 -0.1)">
       <defs>
        <path id="DejaVuSans-30" d="M 2034 4250 
Q 1547 4250 1301 3770 
Q 1056 3291 1056 2328 
Q 1056 1369 1301 889 
Q 1547 409 2034 409 
Q 2525 409 2770 889 
Q 3016 1369 3016 2328 
Q 3016 3291 2770 3770 
Q 2525 4250 2034 4250 
z
M 2034 4750 
Q 2819 4750 3233 4129 
Q 3647 3509 3647 2328 
Q 3647 1150 3233 529 
Q 2819 -91 2034 -91 
Q 1250 -91 836 529 
Q 422 1150 422 2328 
Q 422 3509 836 4129 
Q 1250 4750 2034 4750 
z
" transform="scale(0.015625)"/>
       </defs>
       <use xlink:href="#DejaVuSans-30"/>
      </g>
     </g>
    </g>
    <g id="xtick_2">
     <g id="line2d_5">
      <g>
       <use xlink:href="#m9ac248adb9" x="153.730011" y="308.621937" style="stroke: #000000; stroke-width: 0.8"/>
      </g>
     </g>
     <g id="text_2">
      <!-- 10 -->
      <g transform="translate(147.367511 323.220375) scale(0.1 -0.1)">
       <defs>
        <path id="DejaVuSans-31" d="M 794 531 
L 1825 531 
L 1825 4091 
L 703 3866 
L 703 4441 
L 1819 4666 
L 2450 4666 
L 2450 531 
L 3481 531 
L 3481 0 
L 794 0 
L 794 531 
z
" transform="scale(0.015625)"/>
       </defs>
       <use xlink:href="#DejaVuSans-31"/>
       <use xlink:href="#DejaVuSans-30" transform="translate(63.623047 0)"/>
      </g>
     </g>
    </g>
    <g id="xtick_3">
     <g id="line2d_6">
      <g>
       <use xlink:href="#m9ac248adb9" x="255.224397" y="308.621937" style="stroke: #000000; stroke-width: 0.8"/>
      </g>
     </g>
     <g id="text_3">
      <!-- 20 -->
      <g transform="translate(248.861897 323.220375) scale(0.1 -0.1)">
       <defs>
        <path id="DejaVuSans-32" d="M 1228 531 
L 3431 531 
L 3431 0 
L 469 0 
L 469 531 
Q 828 903 1448 1529 
Q 2069 2156 2228 2338 
Q 2531 2678 2651 2914 
Q 2772 3150 2772 3378 
Q 2772 3750 2511 3984 
Q 2250 4219 1831 4219 
Q 1534 4219 1204 4116 
Q 875 4013 500 3803 
L 500 4441 
Q 881 4594 1212 4672 
Q 1544 4750 1819 4750 
Q 2544 4750 2975 4387 
Q 3406 4025 3406 3419 
Q 3406 3131 3298 2873 
Q 3191 2616 2906 2266 
Q 2828 2175 2409 1742 
Q 1991 1309 1228 531 
z
" transform="scale(0.015625)"/>
       </defs>
       <use xlink:href="#DejaVuSans-32"/>
       <use xlink:href="#DejaVuSans-30" transform="translate(63.623047 0)"/>
      </g>
     </g>
    </g>
    <g id="xtick_4">
     <g id="line2d_7">
      <g>
       <use xlink:href="#m9ac248adb9" x="356.718783" y="308.621937" style="stroke: #000000; stroke-width: 0.8"/>
      </g>
     </g>
     <g id="text_4">
      <!-- 30 -->
      <g transform="translate(350.356283 323.220375) scale(0.1 -0.1)">
       <defs>
        <path id="DejaVuSans-33" d="M 2597 2516 
Q 3050 2419 3304 2112 
Q 3559 1806 3559 1356 
Q 3559 666 3084 287 
Q 2609 -91 1734 -91 
Q 1441 -91 1130 -33 
Q 819 25 488 141 
L 488 750 
Q 750 597 1062 519 
Q 1375 441 1716 441 
Q 2309 441 2620 675 
Q 2931 909 2931 1356 
Q 2931 1769 2642 2001 
Q 2353 2234 1838 2234 
L 1294 2234 
L 1294 2753 
L 1863 2753 
Q 2328 2753 2575 2939 
Q 2822 3125 2822 3475 
Q 2822 3834 2567 4026 
Q 2313 4219 1838 4219 
Q 1578 4219 1281 4162 
Q 984 4106 628 3988 
L 628 4550 
Q 988 4650 1302 4700 
Q 1616 4750 1894 4750 
Q 2613 4750 3031 4423 
Q 3450 4097 3450 3541 
Q 3450 3153 3228 2886 
Q 3006 2619 2597 2516 
z
" transform="scale(0.015625)"/>
       </defs>
       <use xlink:href="#DejaVuSans-33"/>
       <use xlink:href="#DejaVuSans-30" transform="translate(63.623047 0)"/>
      </g>
     </g>
    </g>
    <g id="xtick_5">
     <g id="line2d_8">
      <g>
       <use xlink:href="#m9ac248adb9" x="458.213169" y="308.621937" style="stroke: #000000; stroke-width: 0.8"/>
      </g>
     </g>
     <g id="text_5">
      <!-- 40 -->
      <g transform="translate(451.850669 323.220375) scale(0.1 -0.1)">
       <defs>
        <path id="DejaVuSans-34" d="M 2419 4116 
L 825 1625 
L 2419 1625 
L 2419 4116 
z
M 2253 4666 
L 3047 4666 
L 3047 1625 
L 3713 1625 
L 3713 1100 
L 3047 1100 
L 3047 0 
L 2419 0 
L 2419 1100 
L 313 1100 
L 313 1709 
L 2253 4666 
z
" transform="scale(0.015625)"/>
       </defs>
       <use xlink:href="#DejaVuSans-34"/>
       <use xlink:href="#DejaVuSans-30" transform="translate(63.623047 0)"/>
      </g>
     </g>
    </g>
    <g id="xtick_6">
     <g id="line2d_9">
      <g>
       <use xlink:href="#m9ac248adb9" x="559.707555" y="308.621937" style="stroke: #000000; stroke-width: 0.8"/>
      </g>
     </g>
     <g id="text_6">
      <!-- 50 -->
      <g transform="translate(553.345055 323.220375) scale(0.1 -0.1)">
       <defs>
        <path id="DejaVuSans-35" d="M 691 4666 
L 3169 4666 
L 3169 4134 
L 1269 4134 
L 1269 2991 
Q 1406 3038 1543 3061 
Q 1681 3084 1819 3084 
Q 2600 3084 3056 2656 
Q 3513 2228 3513 1497 
Q 3513 744 3044 326 
Q 2575 -91 1722 -91 
Q 1428 -91 1123 -41 
Q 819 9 494 109 
L 494 744 
Q 775 591 1075 516 
Q 1375 441 1709 441 
Q 2250 441 2565 725 
Q 2881 1009 2881 1497 
Q 2881 1984 2565 2268 
Q 2250 2553 1709 2553 
Q 1456 2553 1204 2497 
Q 953 2441 691 2322 
L 691 4666 
z
" transform="scale(0.015625)"/>
       </defs>
       <use xlink:href="#DejaVuSans-35"/>
       <use xlink:href="#DejaVuSans-30" transform="translate(63.623047 0)"/>
      </g>
     </g>
    </g>
    <g id="text_7">
     <!-- Trading Day  $n$ -->
     <g transform="translate(300.904625 337.660062) scale(0.11 -0.11)">
      <defs>
       <path id="DejaVuSans-54" d="M -19 4666 
L 3928 4666 
L 3928 4134 
L 2272 4134 
L 2272 0 
L 1638 0 
L 1638 4134 
L -19 4134 
L -19 4666 
z
" transform="scale(0.015625)"/>
       <path id="DejaVuSans-72" d="M 2631 2963 
Q 2534 3019 2420 3045 
Q 2306 3072 2169 3072 
Q 1681 3072 1420 2755 
Q 1159 2438 1159 1844 
L 1159 0 
L 581 0 
L 581 3500 
L 1159 3500 
L 1159 2956 
Q 1341 3275 1631 3429 
Q 1922 3584 2338 3584 
Q 2397 3584 2469 3576 
Q 2541 3569 2628 3553 
L 2631 2963 
z
" transform="scale(0.015625)"/>
       <path id="DejaVuSans-61" d="M 2194 1759 
Q 1497 1759 1228 1600 
Q 959 1441 959 1056 
Q 959 750 1161 570 
Q 1363 391 1709 391 
Q 2188 391 2477 730 
Q 2766 1069 2766 1631 
L 2766 1759 
L 2194 1759 
z
M 3341 1997 
L 3341 0 
L 2766 0 
L 2766 531 
Q 2569 213 2275 61 
Q 1981 -91 1556 -91 
Q 1019 -91 701 211 
Q 384 513 384 1019 
Q 384 1609 779 1909 
Q 1175 2209 1959 2209 
L 2766 2209 
L 2766 2266 
Q 2766 2663 2505 2880 
Q 2244 3097 1772 3097 
Q 1472 3097 1187 3025 
Q 903 2953 641 2809 
L 641 3341 
Q 956 3463 1253 3523 
Q 1550 3584 1831 3584 
Q 2591 3584 2966 3190 
Q 3341 2797 3341 1997 
z
" transform="scale(0.015625)"/>
       <path id="DejaVuSans-64" d="M 2906 2969 
L 2906 4863 
L 3481 4863 
L 3481 0 
L 2906 0 
L 2906 525 
Q 2725 213 2448 61 
Q 2172 -91 1784 -91 
Q 1150 -91 751 415 
Q 353 922 353 1747 
Q 353 2572 751 3078 
Q 1150 3584 1784 3584 
Q 2172 3584 2448 3432 
Q 2725 3281 2906 2969 
z
M 947 1747 
Q 947 1113 1208 752 
Q 1469 391 1925 391 
Q 2381 391 2643 752 
Q 2906 1113 2906 1747 
Q 2906 2381 2643 2742 
Q 2381 3103 1925 3103 
Q 1469 3103 1208 2742 
Q 947 2381 947 1747 
z
" transform="scale(0.015625)"/>
       <path id="DejaVuSans-69" d="M 603 3500 
L 1178 3500 
L 1178 0 
L 603 0 
L 603 3500 
z
M 603 4863 
L 1178 4863 
L 1178 4134 
L 603 4134 
L 603 4863 
z
" transform="scale(0.015625)"/>
       <path id="DejaVuSans-6e" d="M 3513 2113 
L 3513 0 
L 2938 0 
L 2938 2094 
Q 2938 2591 2744 2837 
Q 2550 3084 2163 3084 
Q 1697 3084 1428 2787 
Q 1159 2491 1159 1978 
L 1159 0 
L 581 0 
L 581 3500 
L 1159 3500 
L 1159 2956 
Q 1366 3272 1645 3428 
Q 1925 3584 2291 3584 
Q 2894 3584 3203 3211 
Q 3513 2838 3513 2113 
z
" transform="scale(0.015625)"/>
       <path id="DejaVuSans-67" d="M 2906 1791 
Q 2906 2416 2648 2759 
Q 2391 3103 1925 3103 
Q 1463 3103 1205 2759 
Q 947 2416 947 1791 
Q 947 1169 1205 825 
Q 1463 481 1925 481 
Q 2391 481 2648 825 
Q 2906 1169 2906 1791 
z
M 3481 434 
Q 3481 -459 3084 -895 
Q 2688 -1331 1869 -1331 
Q 1566 -1331 1297 -1286 
Q 1028 -1241 775 -1147 
L 775 -588 
Q 1028 -725 1275 -790 
Q 1522 -856 1778 -856 
Q 2344 -856 2625 -561 
Q 2906 -266 2906 331 
L 2906 616 
Q 2728 306 2450 153 
Q 2172 0 1784 0 
Q 1141 0 747 490 
Q 353 981 353 1791 
Q 353 2603 747 3093 
Q 1141 3584 1784 3584 
Q 2172 3584 2450 3431 
Q 2728 3278 2906 2969 
L 2906 3500 
L 3481 3500 
L 3481 434 
z
" transform="scale(0.015625)"/>
       <path id="DejaVuSans-20" transform="scale(0.015625)"/>
       <path id="DejaVuSans-44" d="M 1259 4147 
L 1259 519 
L 2022 519 
Q 2988 519 3436 956 
Q 3884 1394 3884 2338 
Q 3884 3275 3436 3711 
Q 2988 4147 2022 4147 
L 1259 4147 
z
M 628 4666 
L 1925 4666 
Q 3281 4666 3915 4102 
Q 4550 3538 4550 2338 
Q 4550 1131 3912 565 
Q 3275 0 1925 0 
L 628 0 
L 628 4666 
z
" transform="scale(0.015625)"/>
       <path id="DejaVuSans-79" d="M 2059 -325 
Q 1816 -950 1584 -1140 
Q 1353 -1331 966 -1331 
L 506 -1331 
L 506 -850 
L 844 -850 
Q 1081 -850 1212 -737 
Q 1344 -625 1503 -206 
L 1606 56 
L 191 3500 
L 800 3500 
L 1894 763 
L 2988 3500 
L 3597 3500 
L 2059 -325 
z
" transform="scale(0.015625)"/>
       <path id="DejaVuSans-Oblique-6e" d="M 3566 2113 
L 3156 0 
L 2578 0 
L 2988 2091 
Q 3016 2238 3031 2350 
Q 3047 2463 3047 2528 
Q 3047 2791 2881 2937 
Q 2716 3084 2419 3084 
Q 1956 3084 1622 2776 
Q 1288 2469 1184 1941 
L 800 0 
L 225 0 
L 903 3500 
L 1478 3500 
L 1363 2950 
Q 1603 3253 1940 3418 
Q 2278 3584 2650 3584 
Q 3113 3584 3367 3334 
Q 3622 3084 3622 2631 
Q 3622 2519 3608 2391 
Q 3594 2263 3566 2113 
z
" transform="scale(0.015625)"/>
      </defs>
      <use xlink:href="#DejaVuSans-54" transform="translate(0 0.015625)"/>
      <use xlink:href="#DejaVuSans-72" transform="translate(61.083984 0.015625)"/>
      <use xlink:href="#DejaVuSans-61" transform="translate(102.197266 0.015625)"/>
      <use xlink:href="#DejaVuSans-64" transform="translate(163.476562 0.015625)"/>
      <use xlink:href="#DejaVuSans-69" transform="translate(226.953125 0.015625)"/>
      <use xlink:href="#DejaVuSans-6e" transform="translate(254.736328 0.015625)"/>
      <use xlink:href="#DejaVuSans-67" transform="translate(318.115234 0.015625)"/>
      <use xlink:href="#DejaVuSans-20" transform="translate(381.591797 0.015625)"/>
      <use xlink:href="#DejaVuSans-44" transform="translate(413.378906 0.015625)"/>
      <use xlink:href="#DejaVuSans-61" transform="translate(490.380859 0.015625)"/>
      <use xlink:href="#DejaVuSans-79" transform="translate(551.660156 0.015625)"/>
      <use xlink:href="#DejaVuSans-20" transform="translate(610.839844 0.015625)"/>
      <use xlink:href="#DejaVuSans-20" transform="translate(642.626953 0.015625)"/>
      <use xlink:href="#DejaVuSans-Oblique-6e" transform="translate(674.414062 0.015625)"/>
     </g>
    </g>
   </g>
   <g id="matplotlib.axis_2">
    <g id="ytick_1">
     <g id="line2d_10">
      <defs>
       <path id="m69f46f525b" d="M 0 0 
L -3.5 0 
" style="stroke: #000000; stroke-width: 0.8"/>
      </defs>
      <g>
       <use xlink:href="#m69f46f525b" x="52.235625" y="296.850459" style="stroke: #000000; stroke-width: 0.8"/>
      </g>
     </g>
     <g id="text_8">
      <!-- 0 -->
      <g transform="translate(38.873125 300.649678) scale(0.1 -0.1)">
       <use xlink:href="#DejaVuSans-30"/>
      </g>
     </g>
    </g>
    <g id="ytick_2">
     <g id="line2d_11">
      <g>
       <use xlink:href="#m69f46f525b" x="52.235625" y="237.993068" style="stroke: #000000; stroke-width: 0.8"/>
      </g>
     </g>
     <g id="text_9">
      <!-- 0.25 -->
      <g transform="translate(22.97 241.792287) scale(0.1 -0.1)">
       <defs>
        <path id="DejaVuSans-2e" d="M 684 794 
L 1344 794 
L 1344 0 
L 684 0 
L 684 794 
z
" transform="scale(0.015625)"/>
       </defs>
       <use xlink:href="#DejaVuSans-30"/>
       <use xlink:href="#DejaVuSans-2e" transform="translate(63.623047 0)"/>
       <use xlink:href="#DejaVuSans-32" transform="translate(95.410156 0)"/>
       <use xlink:href="#DejaVuSans-35" transform="translate(159.033203 0)"/>
      </g>
     </g>
    </g>
    <g id="ytick_3">
     <g id="line2d_12">
      <g>
       <use xlink:href="#m69f46f525b" x="52.235625" y="179.135677" style="stroke: #000000; stroke-width: 0.8"/>
      </g>
     </g>
     <g id="text_10">
      <!-- 0.50 -->
      <g transform="translate(22.97 182.934895) scale(0.1 -0.1)">
       <use xlink:href="#DejaVuSans-30"/>
       <use xlink:href="#DejaVuSans-2e" transform="translate(63.623047 0)"/>
       <use xlink:href="#DejaVuSans-35" transform="translate(95.410156 0)"/>
       <use xlink:href="#DejaVuSans-30" transform="translate(159.033203 0)"/>
      </g>
     </g>
    </g>
    <g id="ytick_4">
     <g id="line2d_13">
      <g>
       <use xlink:href="#m69f46f525b" x="52.235625" y="120.278285" style="stroke: #000000; stroke-width: 0.8"/>
      </g>
     </g>
     <g id="text_11">
      <!-- 0.75 -->
      <g transform="translate(22.97 124.077504) scale(0.1 -0.1)">
       <defs>
        <path id="DejaVuSans-37" d="M 525 4666 
L 3525 4666 
L 3525 4397 
L 1831 0 
L 1172 0 
L 2766 4134 
L 525 4134 
L 525 4666 
z
" transform="scale(0.015625)"/>
       </defs>
       <use xlink:href="#DejaVuSans-30"/>
       <use xlink:href="#DejaVuSans-2e" transform="translate(63.623047 0)"/>
       <use xlink:href="#DejaVuSans-37" transform="translate(95.410156 0)"/>
       <use xlink:href="#DejaVuSans-35" transform="translate(159.033203 0)"/>
      </g>
     </g>
    </g>
    <g id="ytick_5">
     <g id="line2d_14">
      <g>
       <use xlink:href="#m69f46f525b" x="52.235625" y="61.420894" style="stroke: #000000; stroke-width: 0.8"/>
      </g>
     </g>
     <g id="text_12">
      <!-- 1 -->
      <g transform="translate(38.873125 65.220113) scale(0.1 -0.1)">
       <use xlink:href="#DejaVuSans-31"/>
      </g>
     </g>
    </g>
    <g id="text_13">
     <!-- Delta  $\Delta_{n,j}$ -->
     <g transform="translate(15.56 200.914937) rotate(-90) scale(0.11 -0.11)">
      <defs>
       <path id="DejaVuSans-65" d="M 3597 1894 
L 3597 1613 
L 953 1613 
Q 991 1019 1311 708 
Q 1631 397 2203 397 
Q 2534 397 2845 478 
Q 3156 559 3463 722 
L 3463 178 
Q 3153 47 2828 -22 
Q 2503 -91 2169 -91 
Q 1331 -91 842 396 
Q 353 884 353 1716 
Q 353 2575 817 3079 
Q 1281 3584 2069 3584 
Q 2775 3584 3186 3129 
Q 3597 2675 3597 1894 
z
M 3022 2063 
Q 3016 2534 2758 2815 
Q 2500 3097 2075 3097 
Q 1594 3097 1305 2825 
Q 1016 2553 972 2059 
L 3022 2063 
z
" transform="scale(0.015625)"/>
       <path id="DejaVuSans-6c" d="M 603 4863 
L 1178 4863 
L 1178 0 
L 603 0 
L 603 4863 
z
" transform="scale(0.015625)"/>
       <path id="DejaVuSans-74" d="M 1172 4494 
L 1172 3500 
L 2356 3500 
L 2356 3053 
L 1172 3053 
L 1172 1153 
Q 1172 725 1289 603 
Q 1406 481 1766 481 
L 2356 481 
L 2356 0 
L 1766 0 
Q 1100 0 847 248 
Q 594 497 594 1153 
L 594 3053 
L 172 3053 
L 172 3500 
L 594 3500 
L 594 4494 
L 1172 4494 
z
" transform="scale(0.015625)"/>
       <path id="DejaVuSans-394" d="M 2188 4044 
L 906 525 
L 3472 525 
L 2188 4044 
z
M 50 0 
L 1831 4666 
L 2547 4666 
L 4325 0 
L 50 0 
z
" transform="scale(0.015625)"/>
       <path id="DejaVuSans-2c" d="M 750 794 
L 1409 794 
L 1409 256 
L 897 -744 
L 494 -744 
L 750 256 
L 750 794 
z
" transform="scale(0.015625)"/>
       <path id="DejaVuSans-Oblique-6a" d="M 928 3500 
L 1503 3500 
L 813 -63 
L 809 -78 
Q 694 -675 544 -897 
Q 403 -1106 132 -1218 
Q -138 -1331 -506 -1331 
L -722 -1331 
L -628 -844 
L -481 -844 
Q -144 -844 -1 -703 
Q 141 -563 238 -63 
L 928 3500 
z
M 1197 4863 
L 1772 4863 
L 1631 4134 
L 1056 4134 
L 1197 4863 
z
" transform="scale(0.015625)"/>
      </defs>
      <use xlink:href="#DejaVuSans-44" transform="translate(0 0.015625)"/>
      <use xlink:href="#DejaVuSans-65" transform="translate(77.001953 0.015625)"/>
      <use xlink:href="#DejaVuSans-6c" transform="translate(138.525391 0.015625)"/>
      <use xlink:href="#DejaVuSans-74" transform="translate(166.308594 0.015625)"/>
      <use xlink:href="#DejaVuSans-61" transform="translate(205.517578 0.015625)"/>
      <use xlink:href="#DejaVuSans-20" transform="translate(266.796875 0.015625)"/>
      <use xlink:href="#DejaVuSans-20" transform="translate(298.583984 0.015625)"/>
      <use xlink:href="#DejaVuSans-394" transform="translate(330.371094 0.015625)"/>
      <use xlink:href="#DejaVuSans-Oblique-6e" transform="translate(399.736328 -16.390625) scale(0.7)"/>
      <use xlink:href="#DejaVuSans-2c" transform="translate(444.101562 -16.390625) scale(0.7)"/>
      <use xlink:href="#DejaVuSans-Oblique-6a" transform="translate(479.990234 -16.390625) scale(0.7)"/>
     </g>
    </g>
   </g>
   <g id="line2d_15">
    <path d="M 265.373836 308.621937 
L 265.373836 37.877937 
" clip-path="url(#p238e84daa9)" style="fill: none; stroke-dasharray: 0.9,1.485; stroke-dashoffset: 0; stroke: #1a6ebd; stroke-opacity: 0.6; stroke-width: 0.9"/>
   </g>
   <g id="line2d_16">
    <path d="M 275.523274 308.621937 
L 275.523274 37.877937 
" clip-path="url(#p238e84daa9)" style="fill: none; stroke-dasharray: 0.9,1.485; stroke-dashoffset: 0; stroke: #c0392b; stroke-opacity: 0.6; stroke-width: 0.9"/>
   </g>
   <g id="patch_3">
    <path d="M 52.235625 308.621937 
L 52.235625 37.877937 
" style="fill: none; stroke: #000000; stroke-width: 0.8; stroke-linejoin: miter; stroke-linecap: square"/>
   </g>
   <g id="patch_4">
    <path d="M 52.235625 308.621937 
L 630.753625 308.621937 
" style="fill: none; stroke: #000000; stroke-width: 0.8; stroke-linejoin: miter; stroke-linecap: square"/>
   </g>
   <g id="line2d_17">
    <path d="M 52.235625 163.484626 
L 62.385064 151.43103 
L 72.534502 139.637772 
L 82.683941 128.30902 
L 92.833379 117.63547 
L 102.982818 107.783565 
L 113.132257 98.885916 
L 123.281695 91.033918 
L 133.431134 84.273399 
L 143.580572 78.603825 
L 153.730011 73.981224 
L 163.87945 70.324524 
L 174.028888 67.524568 
L 184.178327 65.454738 
L 194.327765 63.981919 
L 204.477204 62.976564 
L 214.626643 62.320804 
L 224.776081 61.913937 
L 234.92552 61.67509 
L 245.074958 61.543266 
L 255.224397 61.475383 
L 265.373836 61.443072 
L 275.523274 61.429022 
L 285.672713 61.423523 
L 295.822151 61.421624 
L 305.97159 61.421061 
L 316.121029 61.420924 
L 326.270467 61.420898 
L 336.419906 61.420894 
L 346.569344 61.420894 
L 356.718783 61.420894 
L 366.868221 61.420894 
L 377.01766 61.420894 
L 387.167099 61.420894 
L 397.316537 61.420894 
L 407.465976 61.420894 
L 417.615414 61.420894 
L 427.764853 61.420894 
L 437.914292 61.420894 
L 448.06373 61.420894 
L 458.213169 61.420894 
L 468.362607 61.420894 
L 478.512046 61.420894 
L 488.661485 61.420894 
L 498.810923 61.420894 
L 508.960362 61.420894 
L 519.1098 61.420894 
L 529.259239 61.420894 
L 539.408678 61.420894 
L 549.558116 61.420894 
L 559.707555 61.420894 
L 569.856993 61.420894 
L 580.006432 61.420894 
L 590.155871 61.420894 
L 600.305309 61.420894 
L 610.454748 61.420894 
L 620.604186 61.420894 
L 630.753625 61.420894 
" clip-path="url(#p238e84daa9)" style="fill: none; stroke: #1a6ebd; stroke-width: 2; stroke-linecap: square"/>
   </g>
   <g id="line2d_18">
    <path d="M 52.235625 163.484626 
L 62.385064 176.082402 
L 72.534502 188.964553 
L 82.683941 201.89799 
L 92.833379 214.633549 
L 102.982818 226.919439 
L 113.132257 238.516262 
L 123.281695 249.212256 
L 133.431134 258.837202 
L 143.580572 267.273385 
L 153.730011 274.462232 
L 163.87945 280.405694 
L 174.028888 285.162097 
L 184.178327 288.836946 
L 194.327765 291.569894 
L 204.477204 293.519642 
L 214.626643 294.848816 
L 224.776081 295.710734 
L 234.92552 296.239559 
L 245.074958 296.544604 
L 255.224397 296.708778 
L 265.373836 296.790449 
L 275.523274 296.827567 
L 285.672713 296.842749 
L 295.822151 296.848229 
L 305.97159 296.849927 
L 316.121029 296.850361 
L 326.270467 296.850447 
L 336.419906 296.850458 
L 346.569344 296.850459 
L 356.718783 296.850459 
L 366.868221 296.850459 
L 377.01766 296.850459 
L 387.167099 296.850459 
L 397.316537 296.850459 
L 407.465976 296.850459 
L 417.615414 296.850459 
L 427.764853 296.850459 
L 437.914292 296.850459 
L 448.06373 296.850459 
L 458.213169 296.850459 
L 468.362607 296.850459 
L 478.512046 296.850459 
L 488.661485 296.850459 
L 498.810923 296.850459 
L 508.960362 296.850459 
L 519.1098 296.850459 
L 529.259239 296.850459 
L 539.408678 296.850459 
L 549.558116 296.850459 
L 559.707555 296.850459 
L 569.856993 296.850459 
L 580.006432 296.850459 
L 590.155871 296.850459 
L 600.305309 296.850459 
L 610.454748 296.850459 
L 620.604186 296.850459 
L 630.753625 296.850459 
" clip-path="url(#p238e84daa9)" style="fill: none; stroke: #c0392b; stroke-width: 2; stroke-linecap: square"/>
   </g>
   <g id="line2d_19">
    <path d="M 52.235625 163.484626 
L 62.385064 151.43103 
L 72.534502 163.756716 
L 82.683941 151.477981 
L 92.833379 164.033889 
L 102.982818 151.51738 
L 113.132257 164.316429 
L 123.281695 151.548276 
L 133.431134 164.604649 
L 143.580572 151.56957 
L 153.730011 164.898895 
L 163.87945 151.579983 
L 174.028888 165.199548 
L 184.178327 151.578023 
L 194.327765 165.507032 
L 204.477204 151.561931 
L 214.626643 165.82182 
L 224.776081 151.52963 
L 234.92552 166.144444 
L 245.074958 151.47864 
L 255.224397 166.4755 
L 265.373836 151.405981 
L 275.523274 166.815671 
L 285.672713 151.308036 
L 295.822151 167.16573 
L 305.97159 151.180378 
L 316.121029 167.526574 
L 326.270467 151.01752 
L 336.419906 167.899239 
L 346.569344 150.812581 
L 356.718783 168.284943 
L 366.868221 150.556806 
L 377.01766 168.685127 
L 387.167099 150.238876 
L 397.316537 169.101522 
L 407.465976 149.843875 
L 417.615414 169.536232 
L 427.764853 149.351719 
L 437.914292 169.991865 
L 448.06373 148.73465 
L 458.213169 170.471712 
L 468.362607 147.953099 
L 478.512046 170.980034 
L 488.661485 146.948469 
L 498.810923 171.522507 
L 508.960362 145.629743 
L 519.1098 172.106995 
L 529.259239 143.846571 
L 539.408678 172.744928 
L 549.558116 141.329149 
L 559.707555 173.454089 
L 569.856993 137.532836 
L 580.006432 174.264953 
L 590.155871 131.138434 
L 600.305309 175.238465 
L 610.454748 117.708404 
L 620.604186 176.537113 
L 630.753625 61.420894 
" clip-path="url(#p238e84daa9)" style="fill: none; stroke: #27ae60; stroke-opacity: 0.9; stroke-width: 1.6; stroke-linecap: square"/>
   </g>
   <g id="patch_5">
    <path d="M 310.45169 80.069311 
Q 288.835835 71.126972 268.149787 62.569287 
" style="fill: none; stroke: #1a6ebd; stroke-width: 0.9; stroke-linecap: round"/>
    <path d="M 270.788273 65.60876 
L 268.149787 62.569287 
L 272.164457 62.282182 
" style="fill: none; stroke: #1a6ebd; stroke-width: 0.9; stroke-linecap: round"/>
   </g>
   <g id="text_14">
    <!-- $\Delta \approx 1$ (day 21) -->
    <g style="fill: #1a6ebd" transform="translate(295.822151 89.672442) scale(0.09 -0.09)">
     <defs>
      <path id="DejaVuSans-2248" d="M 4684 1947 
L 4684 1388 
Q 4356 1144 4076 1036 
Q 3797 928 3494 928 
Q 3150 928 2694 1113 
Q 2663 1125 2641 1134 
Q 2622 1141 2575 1159 
Q 2091 1350 1797 1350 
Q 1522 1350 1253 1231 
Q 984 1113 678 850 
L 678 1409 
Q 1006 1653 1286 1761 
Q 1566 1869 1869 1869 
Q 2213 1869 2672 1684 
Q 2706 1669 2722 1663 
Q 2741 1656 2788 1638 
Q 3272 1447 3566 1447 
Q 3834 1447 4098 1564 
Q 4363 1681 4684 1947 
z
M 4684 3163 
L 4684 2606 
Q 4356 2359 4076 2251 
Q 3797 2144 3494 2144 
Q 3150 2144 2694 2328 
Q 2663 2341 2641 2350 
Q 2622 2356 2575 2375 
Q 2091 2566 1797 2566 
Q 1522 2566 1253 2447 
Q 984 2328 678 2069 
L 678 2625 
Q 1006 2869 1286 2976 
Q 1566 3084 1869 3084 
Q 2213 3084 2672 2900 
Q 2703 2888 2719 2881 
Q 2741 2872 2788 2853 
Q 3272 2663 3566 2663 
Q 3834 2663 4098 2780 
Q 4363 2897 4684 3163 
z
" transform="scale(0.015625)"/>
      <path id="DejaVuSans-28" d="M 1984 4856 
Q 1566 4138 1362 3434 
Q 1159 2731 1159 2009 
Q 1159 1288 1364 580 
Q 1569 -128 1984 -844 
L 1484 -844 
Q 1016 -109 783 600 
Q 550 1309 550 2009 
Q 550 2706 781 3412 
Q 1013 4119 1484 4856 
L 1984 4856 
z
" transform="scale(0.015625)"/>
      <path id="DejaVuSans-29" d="M 513 4856 
L 1013 4856 
Q 1481 4119 1714 3412 
Q 1947 2706 1947 2009 
Q 1947 1309 1714 600 
Q 1481 -109 1013 -844 
L 513 -844 
Q 928 -128 1133 580 
Q 1338 1288 1338 2009 
Q 1338 2731 1133 3434 
Q 928 4138 513 4856 
z
" transform="scale(0.015625)"/>
     </defs>
     <use xlink:href="#DejaVuSans-394" transform="translate(0 0.015625)"/>
     <use xlink:href="#DejaVuSans-2248" transform="translate(87.890625 0.015625)"/>
     <use xlink:href="#DejaVuSans-31" transform="translate(191.162109 0.015625)"/>
     <use xlink:href="#DejaVuSans-20" transform="translate(254.785156 0.015625)"/>
     <use xlink:href="#DejaVuSans-28" transform="translate(286.572266 0.015625)"/>
     <use xlink:href="#DejaVuSans-64" transform="translate(325.585938 0.015625)"/>
     <use xlink:href="#DejaVuSans-61" transform="translate(389.0625 0.015625)"/>
     <use xlink:href="#DejaVuSans-79" transform="translate(450.341797 0.015625)"/>
     <use xlink:href="#DejaVuSans-20" transform="translate(509.521484 0.015625)"/>
     <use xlink:href="#DejaVuSans-32" transform="translate(541.308594 0.015625)"/>
     <use xlink:href="#DejaVuSans-31" transform="translate(604.931641 0.015625)"/>
     <use xlink:href="#DejaVuSans-29" transform="translate(668.554688 0.015625)"/>
    </g>
   </g>
   <g id="patch_6">
    <path d="M 323.13384 273.371919 
Q 300.225033 284.669103 278.218689 295.52125 
" style="fill: none; stroke: #c0392b; stroke-width: 0.9; stroke-linecap: round"/>
    <path d="M 282.243551 295.543408 
L 278.218689 295.52125 
L 280.651333 292.314656 
" style="fill: none; stroke: #c0392b; stroke-width: 0.9; stroke-linecap: round"/>
   </g>
   <g id="text_15">
    <!-- $\Delta \approx 0$ (day 22) -->
    <g style="fill: #c0392b" transform="translate(305.97159 268.598911) scale(0.09 -0.09)">
     <use xlink:href="#DejaVuSans-394" transform="translate(0 0.015625)"/>
     <use xlink:href="#DejaVuSans-2248" transform="translate(87.890625 0.015625)"/>
     <use xlink:href="#DejaVuSans-30" transform="translate(191.162109 0.015625)"/>
     <use xlink:href="#DejaVuSans-20" transform="translate(254.785156 0.015625)"/>
     <use xlink:href="#DejaVuSans-28" transform="translate(286.572266 0.015625)"/>
     <use xlink:href="#DejaVuSans-64" transform="translate(325.585938 0.015625)"/>
     <use xlink:href="#DejaVuSans-61" transform="translate(389.0625 0.015625)"/>
     <use xlink:href="#DejaVuSans-79" transform="translate(450.341797 0.015625)"/>
     <use xlink:href="#DejaVuSans-20" transform="translate(509.521484 0.015625)"/>
     <use xlink:href="#DejaVuSans-32" transform="translate(541.308594 0.015625)"/>
     <use xlink:href="#DejaVuSans-32" transform="translate(604.931641 0.015625)"/>
     <use xlink:href="#DejaVuSans-29" transform="translate(668.554688 0.015625)"/>
    </g>
   </g>
   <g id="patch_7">
    <path d="M 523.830996 93.994188 
Q 571.271064 78.026137 617.757475 62.379081 
" style="fill: none; stroke: #27ae60; stroke-width: 0.9; stroke-linecap: round"/>
    <path d="M 613.771353 61.821555 
L 617.757475 62.379081 
L 614.919781 65.233463 
" style="fill: none; stroke: #27ae60; stroke-width: 0.9; stroke-linecap: round"/>
   </g>
   <g id="text_16">
    <!-- Gamma spike -->
    <g style="fill: #27ae60" transform="translate(458.213169 103.137367) scale(0.09 -0.09)">
     <defs>
      <path id="DejaVuSans-47" d="M 3809 666 
L 3809 1919 
L 2778 1919 
L 2778 2438 
L 4434 2438 
L 4434 434 
Q 4069 175 3628 42 
Q 3188 -91 2688 -91 
Q 1594 -91 976 548 
Q 359 1188 359 2328 
Q 359 3472 976 4111 
Q 1594 4750 2688 4750 
Q 3144 4750 3555 4637 
Q 3966 4525 4313 4306 
L 4313 3634 
Q 3963 3931 3569 4081 
Q 3175 4231 2741 4231 
Q 1884 4231 1454 3753 
Q 1025 3275 1025 2328 
Q 1025 1384 1454 906 
Q 1884 428 2741 428 
Q 3075 428 3337 486 
Q 3600 544 3809 666 
z
" transform="scale(0.015625)"/>
      <path id="DejaVuSans-6d" d="M 3328 2828 
Q 3544 3216 3844 3400 
Q 4144 3584 4550 3584 
Q 5097 3584 5394 3201 
Q 5691 2819 5691 2113 
L 5691 0 
L 5113 0 
L 5113 2094 
Q 5113 2597 4934 2840 
Q 4756 3084 4391 3084 
Q 3944 3084 3684 2787 
Q 3425 2491 3425 1978 
L 3425 0 
L 2847 0 
L 2847 2094 
Q 2847 2600 2669 2842 
Q 2491 3084 2119 3084 
Q 1678 3084 1418 2786 
Q 1159 2488 1159 1978 
L 1159 0 
L 581 0 
L 581 3500 
L 1159 3500 
L 1159 2956 
Q 1356 3278 1631 3431 
Q 1906 3584 2284 3584 
Q 2666 3584 2933 3390 
Q 3200 3197 3328 2828 
z
" transform="scale(0.015625)"/>
      <path id="DejaVuSans-73" d="M 2834 3397 
L 2834 2853 
Q 2591 2978 2328 3040 
Q 2066 3103 1784 3103 
Q 1356 3103 1142 2972 
Q 928 2841 928 2578 
Q 928 2378 1081 2264 
Q 1234 2150 1697 2047 
L 1894 2003 
Q 2506 1872 2764 1633 
Q 3022 1394 3022 966 
Q 3022 478 2636 193 
Q 2250 -91 1575 -91 
Q 1294 -91 989 -36 
Q 684 19 347 128 
L 347 722 
Q 666 556 975 473 
Q 1284 391 1588 391 
Q 1994 391 2212 530 
Q 2431 669 2431 922 
Q 2431 1156 2273 1281 
Q 2116 1406 1581 1522 
L 1381 1569 
Q 847 1681 609 1914 
Q 372 2147 372 2553 
Q 372 3047 722 3315 
Q 1072 3584 1716 3584 
Q 2034 3584 2315 3537 
Q 2597 3491 2834 3397 
z
" transform="scale(0.015625)"/>
      <path id="DejaVuSans-70" d="M 1159 525 
L 1159 -1331 
L 581 -1331 
L 581 3500 
L 1159 3500 
L 1159 2969 
Q 1341 3281 1617 3432 
Q 1894 3584 2278 3584 
Q 2916 3584 3314 3078 
Q 3713 2572 3713 1747 
Q 3713 922 3314 415 
Q 2916 -91 2278 -91 
Q 1894 -91 1617 61 
Q 1341 213 1159 525 
z
M 3116 1747 
Q 3116 2381 2855 2742 
Q 2594 3103 2138 3103 
Q 1681 3103 1420 2742 
Q 1159 2381 1159 1747 
Q 1159 1113 1420 752 
Q 1681 391 2138 391 
Q 2594 391 2855 752 
Q 3116 1113 3116 1747 
z
" transform="scale(0.015625)"/>
      <path id="DejaVuSans-6b" d="M 581 4863 
L 1159 4863 
L 1159 1991 
L 2875 3500 
L 3609 3500 
L 1753 1863 
L 3688 0 
L 2938 0 
L 1159 1709 
L 1159 0 
L 581 0 
L 581 4863 
z
" transform="scale(0.015625)"/>
     </defs>
     <use xlink:href="#DejaVuSans-47"/>
     <use xlink:href="#DejaVuSans-61" transform="translate(77.490234 0)"/>
     <use xlink:href="#DejaVuSans-6d" transform="translate(138.769531 0)"/>
     <use xlink:href="#DejaVuSans-6d" transform="translate(236.181641 0)"/>
     <use xlink:href="#DejaVuSans-61" transform="translate(333.59375 0)"/>
     <use xlink:href="#DejaVuSans-20" transform="translate(394.873047 0)"/>
     <use xlink:href="#DejaVuSans-73" transform="translate(426.660156 0)"/>
     <use xlink:href="#DejaVuSans-70" transform="translate(478.759766 0)"/>
     <use xlink:href="#DejaVuSans-69" transform="translate(542.236328 0)"/>
     <use xlink:href="#DejaVuSans-6b" transform="translate(570.019531 0)"/>
     <use xlink:href="#DejaVuSans-65" transform="translate(624.304688 0)"/>
    </g>
    <!-- near expiry -->
    <g style="fill: #27ae60" transform="translate(458.213169 113.215398) scale(0.09 -0.09)">
     <defs>
      <path id="DejaVuSans-78" d="M 3513 3500 
L 2247 1797 
L 3578 0 
L 2900 0 
L 1881 1375 
L 863 0 
L 184 0 
L 1544 1831 
L 300 3500 
L 978 3500 
L 1906 2253 
L 2834 3500 
L 3513 3500 
z
" transform="scale(0.015625)"/>
     </defs>
     <use xlink:href="#DejaVuSans-6e"/>
     <use xlink:href="#DejaVuSans-65" transform="translate(63.378906 0)"/>
     <use xlink:href="#DejaVuSans-61" transform="translate(124.902344 0)"/>
     <use xlink:href="#DejaVuSans-72" transform="translate(186.181641 0)"/>
     <use xlink:href="#DejaVuSans-20" transform="translate(227.294922 0)"/>
     <use xlink:href="#DejaVuSans-65" transform="translate(259.082031 0)"/>
     <use xlink:href="#DejaVuSans-78" transform="translate(318.855469 0)"/>
     <use xlink:href="#DejaVuSans-70" transform="translate(378.035156 0)"/>
     <use xlink:href="#DejaVuSans-69" transform="translate(441.511719 0)"/>
     <use xlink:href="#DejaVuSans-72" transform="translate(469.294922 0)"/>
     <use xlink:href="#DejaVuSans-79" transform="translate(510.408203 0)"/>
    </g>
   </g>
   <g id="text_17">
    <!-- Deep ITM  ($\Delta = 1$) -->
    <g style="fill: #777777" transform="translate(397.93696 49.649416) scale(0.085 -0.085)">
     <defs>
      <path id="DejaVuSans-49" d="M 628 4666 
L 1259 4666 
L 1259 0 
L 628 0 
L 628 4666 
z
" transform="scale(0.015625)"/>
      <path id="DejaVuSans-4d" d="M 628 4666 
L 1569 4666 
L 2759 1491 
L 3956 4666 
L 4897 4666 
L 4897 0 
L 4281 0 
L 4281 4097 
L 3078 897 
L 2444 897 
L 1241 4097 
L 1241 0 
L 628 0 
L 628 4666 
z
" transform="scale(0.015625)"/>
      <path id="DejaVuSans-3d" d="M 678 2906 
L 4684 2906 
L 4684 2381 
L 678 2381 
L 678 2906 
z
M 678 1631 
L 4684 1631 
L 4684 1100 
L 678 1100 
L 678 1631 
z
" transform="scale(0.015625)"/>
     </defs>
     <use xlink:href="#DejaVuSans-44" transform="translate(0 0.125)"/>
     <use xlink:href="#DejaVuSans-65" transform="translate(77.001953 0.125)"/>
     <use xlink:href="#DejaVuSans-65" transform="translate(138.525391 0.125)"/>
     <use xlink:href="#DejaVuSans-70" transform="translate(200.048828 0.125)"/>
     <use xlink:href="#DejaVuSans-20" transform="translate(263.525391 0.125)"/>
     <use xlink:href="#DejaVuSans-49" transform="translate(295.3125 0.125)"/>
     <use xlink:href="#DejaVuSans-54" transform="translate(324.804688 0.125)"/>
     <use xlink:href="#DejaVuSans-4d" transform="translate(385.888672 0.125)"/>
     <use xlink:href="#DejaVuSans-20" transform="translate(472.167969 0.125)"/>
     <use xlink:href="#DejaVuSans-20" transform="translate(503.955078 0.125)"/>
     <use xlink:href="#DejaVuSans-28" transform="translate(535.742188 0.125)"/>
     <use xlink:href="#DejaVuSans-394" transform="translate(574.755859 0.125)"/>
     <use xlink:href="#DejaVuSans-3d" transform="translate(662.646484 0.125)"/>
     <use xlink:href="#DejaVuSans-31" transform="translate(765.917969 0.125)"/>
     <use xlink:href="#DejaVuSans-29" transform="translate(829.541016 0.125)"/>
    </g>
   </g>
   <g id="text_18">
    <!-- Deep OTM  ($\Delta = 0$) -->
    <g style="fill: #777777" transform="translate(395.85446 305.090494) scale(0.085 -0.085)">
     <defs>
      <path id="DejaVuSans-4f" d="M 2522 4238 
Q 1834 4238 1429 3725 
Q 1025 3213 1025 2328 
Q 1025 1447 1429 934 
Q 1834 422 2522 422 
Q 3209 422 3611 934 
Q 4013 1447 4013 2328 
Q 4013 3213 3611 3725 
Q 3209 4238 2522 4238 
z
M 2522 4750 
Q 3503 4750 4090 4092 
Q 4678 3434 4678 2328 
Q 4678 1225 4090 567 
Q 3503 -91 2522 -91 
Q 1538 -91 948 565 
Q 359 1222 359 2328 
Q 359 3434 948 4092 
Q 1538 4750 2522 4750 
z
" transform="scale(0.015625)"/>
     </defs>
     <use xlink:href="#DejaVuSans-44" transform="translate(0 0.125)"/>
     <use xlink:href="#DejaVuSans-65" transform="translate(77.001953 0.125)"/>
     <use xlink:href="#DejaVuSans-65" transform="translate(138.525391 0.125)"/>
     <use xlink:href="#DejaVuSans-70" transform="translate(200.048828 0.125)"/>
     <use xlink:href="#DejaVuSans-20" transform="translate(263.525391 0.125)"/>
     <use xlink:href="#DejaVuSans-4f" transform="translate(295.3125 0.125)"/>
     <use xlink:href="#DejaVuSans-54" transform="translate(374.023438 0.125)"/>
     <use xlink:href="#DejaVuSans-4d" transform="translate(435.107422 0.125)"/>
     <use xlink:href="#DejaVuSans-20" transform="translate(521.386719 0.125)"/>
     <use xlink:href="#DejaVuSans-20" transform="translate(553.173828 0.125)"/>
     <use xlink:href="#DejaVuSans-28" transform="translate(584.960938 0.125)"/>
     <use xlink:href="#DejaVuSans-394" transform="translate(623.974609 0.125)"/>
     <use xlink:href="#DejaVuSans-3d" transform="translate(711.865234 0.125)"/>
     <use xlink:href="#DejaVuSans-30" transform="translate(815.136719 0.125)"/>
     <use xlink:href="#DejaVuSans-29" transform="translate(878.759766 0.125)"/>
    </g>
   </g>
   <g id="text_19">
    <!-- Delta Evolution Along Three Price Paths -->
    <g transform="translate(232.689156 15.558281) scale(0.11 -0.11)">
     <defs>
      <path id="DejaVuSans-45" d="M 628 4666 
L 3578 4666 
L 3578 4134 
L 1259 4134 
L 1259 2753 
L 3481 2753 
L 3481 2222 
L 1259 2222 
L 1259 531 
L 3634 531 
L 3634 0 
L 628 0 
L 628 4666 
z
" transform="scale(0.015625)"/>
      <path id="DejaVuSans-76" d="M 191 3500 
L 800 3500 
L 1894 563 
L 2988 3500 
L 3597 3500 
L 2284 0 
L 1503 0 
L 191 3500 
z
" transform="scale(0.015625)"/>
      <path id="DejaVuSans-6f" d="M 1959 3097 
Q 1497 3097 1228 2736 
Q 959 2375 959 1747 
Q 959 1119 1226 758 
Q 1494 397 1959 397 
Q 2419 397 2687 759 
Q 2956 1122 2956 1747 
Q 2956 2369 2687 2733 
Q 2419 3097 1959 3097 
z
M 1959 3584 
Q 2709 3584 3137 3096 
Q 3566 2609 3566 1747 
Q 3566 888 3137 398 
Q 2709 -91 1959 -91 
Q 1206 -91 779 398 
Q 353 888 353 1747 
Q 353 2609 779 3096 
Q 1206 3584 1959 3584 
z
" transform="scale(0.015625)"/>
      <path id="DejaVuSans-75" d="M 544 1381 
L 544 3500 
L 1119 3500 
L 1119 1403 
Q 1119 906 1312 657 
Q 1506 409 1894 409 
Q 2359 409 2629 706 
Q 2900 1003 2900 1516 
L 2900 3500 
L 3475 3500 
L 3475 0 
L 2900 0 
L 2900 538 
Q 2691 219 2414 64 
Q 2138 -91 1772 -91 
Q 1169 -91 856 284 
Q 544 659 544 1381 
z
M 1991 3584 
L 1991 3584 
z
" transform="scale(0.015625)"/>
      <path id="DejaVuSans-41" d="M 2188 4044 
L 1331 1722 
L 3047 1722 
L 2188 4044 
z
M 1831 4666 
L 2547 4666 
L 4325 0 
L 3669 0 
L 3244 1197 
L 1141 1197 
L 716 0 
L 50 0 
L 1831 4666 
z
" transform="scale(0.015625)"/>
      <path id="DejaVuSans-68" d="M 3513 2113 
L 3513 0 
L 2938 0 
L 2938 2094 
Q 2938 2591 2744 2837 
Q 2550 3084 2163 3084 
Q 1697 3084 1428 2787 
Q 1159 2491 1159 1978 
L 1159 0 
L 581 0 
L 581 4863 
L 1159 4863 
L 1159 2956 
Q 1366 3272 1645 3428 
Q 1925 3584 2291 3584 
Q 2894 3584 3203 3211 
Q 3513 2838 3513 2113 
z
" transform="scale(0.015625)"/>
      <path id="DejaVuSans-50" d="M 1259 4147 
L 1259 2394 
L 2053 2394 
Q 2494 2394 2734 2622 
Q 2975 2850 2975 3272 
Q 2975 3691 2734 3919 
Q 2494 4147 2053 4147 
L 1259 4147 
z
M 628 4666 
L 2053 4666 
Q 2838 4666 3239 4311 
Q 3641 3956 3641 3272 
Q 3641 2581 3239 2228 
Q 2838 1875 2053 1875 
L 1259 1875 
L 1259 0 
L 628 0 
L 628 4666 
z
" transform="scale(0.015625)"/>
      <path id="DejaVuSans-63" d="M 3122 3366 
L 3122 2828 
Q 2878 2963 2633 3030 
Q 2388 3097 2138 3097 
Q 1578 3097 1268 2742 
Q 959 2388 959 1747 
Q 959 1106 1268 751 
Q 1578 397 2138 397 
Q 2388 397 2633 464 
Q 2878 531 3122 666 
L 3122 134 
Q 2881 22 2623 -34 
Q 2366 -91 2075 -91 
Q 1284 -91 818 406 
Q 353 903 353 1747 
Q 353 2603 823 3093 
Q 1294 3584 2113 3584 
Q 2378 3584 2631 3529 
Q 2884 3475 3122 3366 
z
" transform="scale(0.015625)"/>
     </defs>
     <use xlink:href="#DejaVuSans-44"/>
     <use xlink:href="#DejaVuSans-65" transform="translate(77.001953 0)"/>
     <use xlink:href="#DejaVuSans-6c" transform="translate(138.525391 0)"/>
     <use xlink:href="#DejaVuSans-74" transform="translate(166.308594 0)"/>
     <use xlink:href="#DejaVuSans-61" transform="translate(205.517578 0)"/>
     <use xlink:href="#DejaVuSans-20" transform="translate(266.796875 0)"/>
     <use xlink:href="#DejaVuSans-45" transform="translate(298.583984 0)"/>
     <use xlink:href="#DejaVuSans-76" transform="translate(361.767578 0)"/>
     <use xlink:href="#DejaVuSans-6f" transform="translate(420.947266 0)"/>
     <use xlink:href="#DejaVuSans-6c" transform="translate(482.128906 0)"/>
     <use xlink:href="#DejaVuSans-75" transform="translate(509.912109 0)"/>
     <use xlink:href="#DejaVuSans-74" transform="translate(573.291016 0)"/>
     <use xlink:href="#DejaVuSans-69" transform="translate(612.5 0)"/>
     <use xlink:href="#DejaVuSans-6f" transform="translate(640.283203 0)"/>
     <use xlink:href="#DejaVuSans-6e" transform="translate(701.464844 0)"/>
     <use xlink:href="#DejaVuSans-20" transform="translate(764.84375 0)"/>
     <use xlink:href="#DejaVuSans-41" transform="translate(796.630859 0)"/>
     <use xlink:href="#DejaVuSans-6c" transform="translate(865.039062 0)"/>
     <use xlink:href="#DejaVuSans-6f" transform="translate(892.822266 0)"/>
     <use xlink:href="#DejaVuSans-6e" transform="translate(954.003906 0)"/>
     <use xlink:href="#DejaVuSans-67" transform="translate(1017.382812 0)"/>
     <use xlink:href="#DejaVuSans-20" transform="translate(1080.859375 0)"/>
     <use xlink:href="#DejaVuSans-54" transform="translate(1112.646484 0)"/>
     <use xlink:href="#DejaVuSans-68" transform="translate(1173.730469 0)"/>
     <use xlink:href="#DejaVuSans-72" transform="translate(1237.109375 0)"/>
     <use xlink:href="#DejaVuSans-65" transform="translate(1275.972656 0)"/>
     <use xlink:href="#DejaVuSans-65" transform="translate(1337.496094 0)"/>
     <use xlink:href="#DejaVuSans-20" transform="translate(1399.019531 0)"/>
     <use xlink:href="#DejaVuSans-50" transform="translate(1430.806641 0)"/>
     <use xlink:href="#DejaVuSans-72" transform="translate(1489.359375 0)"/>
     <use xlink:href="#DejaVuSans-69" transform="translate(1530.472656 0)"/>
     <use xlink:href="#DejaVuSans-63" transform="translate(1558.255859 0)"/>
     <use xlink:href="#DejaVuSans-65" transform="translate(1613.236328 0)"/>
     <use xlink:href="#DejaVuSans-20" transform="translate(1674.759766 0)"/>
     <use xlink:href="#DejaVuSans-50" transform="translate(1706.546875 0)"/>
     <use xlink:href="#DejaVuSans-61" transform="translate(1762.349609 0)"/>
     <use xlink:href="#DejaVuSans-74" transform="translate(1823.628906 0)"/>
     <use xlink:href="#DejaVuSans-68" transform="translate(1862.837891 0)"/>
     <use xlink:href="#DejaVuSans-73" transform="translate(1926.216797 0)"/>
    </g>
    <!-- $S_0=100,\ K=100,\ \sigma=20\%,\ r=5\%,\ T=3/13\ \mathrm{yr},\ N=58\ \mathrm{days}$ -->
    <g transform="translate(171.654625 27.877937) scale(0.11 -0.11)">
     <defs>
      <path id="DejaVuSans-Oblique-53" d="M 3859 4513 
L 3738 3897 
Q 3422 4066 3111 4152 
Q 2800 4238 2509 4238 
Q 1944 4238 1609 3991 
Q 1275 3744 1275 3334 
Q 1275 3109 1398 2989 
Q 1522 2869 2034 2731 
L 2413 2638 
Q 3053 2472 3303 2217 
Q 3553 1963 3553 1503 
Q 3553 797 2998 353 
Q 2444 -91 1538 -91 
Q 1166 -91 791 -17 
Q 416 56 38 206 
L 166 856 
Q 513 641 861 531 
Q 1209 422 1556 422 
Q 2147 422 2503 684 
Q 2859 947 2859 1369 
Q 2859 1650 2717 1795 
Q 2575 1941 2106 2059 
L 1728 2156 
Q 1081 2325 845 2545 
Q 609 2766 609 3163 
Q 609 3859 1145 4304 
Q 1681 4750 2541 4750 
Q 2875 4750 3203 4690 
Q 3531 4631 3859 4513 
z
" transform="scale(0.015625)"/>
      <path id="DejaVuSans-Oblique-4b" d="M 1081 4666 
L 1716 4666 
L 1331 2700 
L 3781 4666 
L 4622 4666 
L 1850 2438 
L 3878 0 
L 3109 0 
L 1247 2272 
L 806 0 
L 172 0 
L 1081 4666 
z
" transform="scale(0.015625)"/>
      <path id="DejaVuSans-Oblique-3c3" d="M 2219 3044 
Q 1744 3044 1422 2700 
Q 1081 2341 969 1747 
Q 844 1119 1044 756 
Q 1241 397 1706 397 
Q 2166 397 2503 759 
Q 2844 1122 2966 1747 
Q 3075 2319 2881 2700 
Q 2700 3044 2219 3044 
z
M 2309 3503 
L 4219 3500 
L 4106 2925 
L 3463 2925 
Q 3706 2438 3575 1747 
Q 3406 888 2884 400 
Q 2359 -91 1609 -91 
Q 856 -91 525 400 
Q 194 888 363 1747 
Q 528 2609 1050 3097 
Q 1484 3503 2309 3503 
z
" transform="scale(0.015625)"/>
      <path id="DejaVuSans-25" d="M 4653 2053 
Q 4381 2053 4226 1822 
Q 4072 1591 4072 1178 
Q 4072 772 4226 539 
Q 4381 306 4653 306 
Q 4919 306 5073 539 
Q 5228 772 5228 1178 
Q 5228 1588 5073 1820 
Q 4919 2053 4653 2053 
z
M 4653 2450 
Q 5147 2450 5437 2106 
Q 5728 1763 5728 1178 
Q 5728 594 5436 251 
Q 5144 -91 4653 -91 
Q 4153 -91 3862 251 
Q 3572 594 3572 1178 
Q 3572 1766 3864 2108 
Q 4156 2450 4653 2450 
z
M 1428 4353 
Q 1159 4353 1004 4120 
Q 850 3888 850 3481 
Q 850 3069 1003 2837 
Q 1156 2606 1428 2606 
Q 1700 2606 1854 2837 
Q 2009 3069 2009 3481 
Q 2009 3884 1853 4118 
Q 1697 4353 1428 4353 
z
M 4250 4750 
L 4750 4750 
L 1831 -91 
L 1331 -91 
L 4250 4750 
z
M 1428 4750 
Q 1922 4750 2215 4408 
Q 2509 4066 2509 3481 
Q 2509 2891 2217 2550 
Q 1925 2209 1428 2209 
Q 931 2209 642 2551 
Q 353 2894 353 3481 
Q 353 4063 643 4406 
Q 934 4750 1428 4750 
z
" transform="scale(0.015625)"/>
      <path id="DejaVuSans-Oblique-72" d="M 2853 2969 
Q 2766 3016 2653 3041 
Q 2541 3066 2413 3066 
Q 1953 3066 1609 2717 
Q 1266 2369 1153 1784 
L 800 0 
L 225 0 
L 909 3500 
L 1484 3500 
L 1375 2956 
Q 1603 3259 1920 3421 
Q 2238 3584 2597 3584 
Q 2691 3584 2781 3573 
Q 2872 3563 2963 3538 
L 2853 2969 
z
" transform="scale(0.015625)"/>
      <path id="DejaVuSans-Oblique-54" d="M 378 4666 
L 4325 4666 
L 4225 4134 
L 2559 4134 
L 1759 0 
L 1125 0 
L 1925 4134 
L 275 4134 
L 378 4666 
z
" transform="scale(0.015625)"/>
      <path id="DejaVuSans-2f" d="M 1625 4666 
L 2156 4666 
L 531 -594 
L 0 -594 
L 1625 4666 
z
" transform="scale(0.015625)"/>
      <path id="DejaVuSans-Oblique-4e" d="M 1081 4666 
L 1931 4666 
L 3219 666 
L 4000 4666 
L 4616 4666 
L 3706 0 
L 2853 0 
L 1569 4025 
L 788 0 
L 172 0 
L 1081 4666 
z
" transform="scale(0.015625)"/>
      <path id="DejaVuSans-38" d="M 2034 2216 
Q 1584 2216 1326 1975 
Q 1069 1734 1069 1313 
Q 1069 891 1326 650 
Q 1584 409 2034 409 
Q 2484 409 2743 651 
Q 3003 894 3003 1313 
Q 3003 1734 2745 1975 
Q 2488 2216 2034 2216 
z
M 1403 2484 
Q 997 2584 770 2862 
Q 544 3141 544 3541 
Q 544 4100 942 4425 
Q 1341 4750 2034 4750 
Q 2731 4750 3128 4425 
Q 3525 4100 3525 3541 
Q 3525 3141 3298 2862 
Q 3072 2584 2669 2484 
Q 3125 2378 3379 2068 
Q 3634 1759 3634 1313 
Q 3634 634 3220 271 
Q 2806 -91 2034 -91 
Q 1263 -91 848 271 
Q 434 634 434 1313 
Q 434 1759 690 2068 
Q 947 2378 1403 2484 
z
M 1172 3481 
Q 1172 3119 1398 2916 
Q 1625 2713 2034 2713 
Q 2441 2713 2670 2916 
Q 2900 3119 2900 3481 
Q 2900 3844 2670 4047 
Q 2441 4250 2034 4250 
Q 1625 4250 1398 4047 
Q 1172 3844 1172 3481 
z
" transform="scale(0.015625)"/>
     </defs>
     <use xlink:href="#DejaVuSans-Oblique-53" transform="translate(0 0.015625)"/>
     <use xlink:href="#DejaVuSans-30" transform="translate(63.476562 -16.390625) scale(0.7)"/>
     <use xlink:href="#DejaVuSans-3d" transform="translate(130.229492 0.015625)"/>
     <use xlink:href="#DejaVuSans-31" transform="translate(233.500977 0.015625)"/>
     <use xlink:href="#DejaVuSans-30" transform="translate(297.124023 0.015625)"/>
     <use xlink:href="#DejaVuSans-30" transform="translate(360.74707 0.015625)"/>
     <use xlink:href="#DejaVuSans-2c" transform="translate(424.370117 0.015625)"/>
     <use xlink:href="#DejaVuSans-Oblique-4b" transform="translate(508.110027 0.015625)"/>
     <use xlink:href="#DejaVuSans-3d" transform="translate(593.168621 0.015625)"/>
     <use xlink:href="#DejaVuSans-31" transform="translate(696.440105 0.015625)"/>
     <use xlink:href="#DejaVuSans-30" transform="translate(760.063152 0.015625)"/>
     <use xlink:href="#DejaVuSans-30" transform="translate(823.686199 0.015625)"/>
     <use xlink:href="#DejaVuSans-2c" transform="translate(887.309246 0.015625)"/>
     <use xlink:href="#DejaVuSans-Oblique-3c3" transform="translate(971.049155 0.015625)"/>
     <use xlink:href="#DejaVuSans-3d" transform="translate(1053.910483 0.015625)"/>
     <use xlink:href="#DejaVuSans-32" transform="translate(1157.181968 0.015625)"/>
     <use xlink:href="#DejaVuSans-30" transform="translate(1220.805015 0.015625)"/>
     <use xlink:href="#DejaVuSans-25" transform="translate(1284.428062 0.015625)"/>
     <use xlink:href="#DejaVuSans-2c" transform="translate(1379.447593 0.015625)"/>
     <use xlink:href="#DejaVuSans-Oblique-72" transform="translate(1463.187502 0.015625)"/>
     <use xlink:href="#DejaVuSans-3d" transform="translate(1523.783206 0.015625)"/>
     <use xlink:href="#DejaVuSans-35" transform="translate(1627.05469 0.015625)"/>
     <use xlink:href="#DejaVuSans-25" transform="translate(1690.677737 0.015625)"/>
     <use xlink:href="#DejaVuSans-2c" transform="translate(1785.697268 0.015625)"/>
     <use xlink:href="#DejaVuSans-Oblique-54" transform="translate(1869.437178 0.015625)"/>
     <use xlink:href="#DejaVuSans-3d" transform="translate(1950.003584 0.015625)"/>
     <use xlink:href="#DejaVuSans-33" transform="translate(2053.275068 0.015625)"/>
     <use xlink:href="#DejaVuSans-2f" transform="translate(2116.898115 0.015625)"/>
     <use xlink:href="#DejaVuSans-31" transform="translate(2150.589521 0.015625)"/>
     <use xlink:href="#DejaVuSans-33" transform="translate(2214.212568 0.015625)"/>
     <use xlink:href="#DejaVuSans-79" transform="translate(2310.305994 0.015625)"/>
     <use xlink:href="#DejaVuSans-72" transform="translate(2369.485681 0.015625)"/>
     <use xlink:href="#DejaVuSans-2c" transform="translate(2410.598962 0.015625)"/>
     <use xlink:href="#DejaVuSans-Oblique-4e" transform="translate(2494.338872 0.015625)"/>
     <use xlink:href="#DejaVuSans-3d" transform="translate(2588.625981 0.015625)"/>
     <use xlink:href="#DejaVuSans-35" transform="translate(2691.897466 0.015625)"/>
     <use xlink:href="#DejaVuSans-38" transform="translate(2755.520513 0.015625)"/>
     <use xlink:href="#DejaVuSans-64" transform="translate(2851.613938 0.015625)"/>
     <use xlink:href="#DejaVuSans-61" transform="translate(2915.0905 0.015625)"/>
     <use xlink:href="#DejaVuSans-79" transform="translate(2976.369797 0.015625)"/>
     <use xlink:href="#DejaVuSans-73" transform="translate(3035.549485 0.015625)"/>
    </g>
   </g>
   <g id="legend_1">
    <g id="patch_8">
     <path d="M 486.188859 195.591266 
L 624.103625 195.591266 
Q 626.003625 195.591266 626.003625 193.691266 
L 626.003625 152.808609 
Q 626.003625 150.908609 624.103625 150.908609 
L 486.188859 150.908609 
Q 484.288859 150.908609 484.288859 152.808609 
L 484.288859 193.691266 
Q 484.288859 195.591266 486.188859 195.591266 
z
" style="fill: #ffffff; opacity: 0.85; stroke: #cccccc; stroke-linejoin: miter"/>
    </g>
    <g id="line2d_20">
     <path d="M 488.088859 158.602125 
L 497.588859 158.602125 
L 507.088859 158.602125 
" style="fill: none; stroke: #1a6ebd; stroke-width: 2; stroke-linecap: square"/>
    </g>
    <g id="text_20">
     <!-- All Up   (ITM path) -->
     <g transform="translate(514.688859 161.927125) scale(0.095 -0.095)">
      <defs>
       <path id="DejaVuSans-55" d="M 556 4666 
L 1191 4666 
L 1191 1831 
Q 1191 1081 1462 751 
Q 1734 422 2344 422 
Q 2950 422 3222 751 
Q 3494 1081 3494 1831 
L 3494 4666 
L 4128 4666 
L 4128 1753 
Q 4128 841 3676 375 
Q 3225 -91 2344 -91 
Q 1459 -91 1007 375 
Q 556 841 556 1753 
L 556 4666 
z
" transform="scale(0.015625)"/>
      </defs>
      <use xlink:href="#DejaVuSans-41"/>
      <use xlink:href="#DejaVuSans-6c" transform="translate(68.408203 0)"/>
      <use xlink:href="#DejaVuSans-6c" transform="translate(96.191406 0)"/>
      <use xlink:href="#DejaVuSans-20" transform="translate(123.974609 0)"/>
      <use xlink:href="#DejaVuSans-55" transform="translate(155.761719 0)"/>
      <use xlink:href="#DejaVuSans-70" transform="translate(228.955078 0)"/>
      <use xlink:href="#DejaVuSans-20" transform="translate(292.431641 0)"/>
      <use xlink:href="#DejaVuSans-20" transform="translate(324.21875 0)"/>
      <use xlink:href="#DejaVuSans-20" transform="translate(356.005859 0)"/>
      <use xlink:href="#DejaVuSans-28" transform="translate(387.792969 0)"/>
      <use xlink:href="#DejaVuSans-49" transform="translate(426.806641 0)"/>
      <use xlink:href="#DejaVuSans-54" transform="translate(456.298828 0)"/>
      <use xlink:href="#DejaVuSans-4d" transform="translate(517.382812 0)"/>
      <use xlink:href="#DejaVuSans-20" transform="translate(603.662109 0)"/>
      <use xlink:href="#DejaVuSans-70" transform="translate(635.449219 0)"/>
      <use xlink:href="#DejaVuSans-61" transform="translate(698.925781 0)"/>
      <use xlink:href="#DejaVuSans-74" transform="translate(760.205078 0)"/>
      <use xlink:href="#DejaVuSans-68" transform="translate(799.414062 0)"/>
      <use xlink:href="#DejaVuSans-29" transform="translate(862.792969 0)"/>
     </g>
    </g>
    <g id="line2d_21">
     <path d="M 488.088859 172.546344 
L 497.588859 172.546344 
L 507.088859 172.546344 
" style="fill: none; stroke: #c0392b; stroke-width: 2; stroke-linecap: square"/>
    </g>
    <g id="text_21">
     <!-- All Down (OTM path) -->
     <g transform="translate(514.688859 175.871344) scale(0.095 -0.095)">
      <defs>
       <path id="DejaVuSans-77" d="M 269 3500 
L 844 3500 
L 1563 769 
L 2278 3500 
L 2956 3500 
L 3675 769 
L 4391 3500 
L 4966 3500 
L 4050 0 
L 3372 0 
L 2619 2869 
L 1863 0 
L 1184 0 
L 269 3500 
z
" transform="scale(0.015625)"/>
      </defs>
      <use xlink:href="#DejaVuSans-41"/>
      <use xlink:href="#DejaVuSans-6c" transform="translate(68.408203 0)"/>
      <use xlink:href="#DejaVuSans-6c" transform="translate(96.191406 0)"/>
      <use xlink:href="#DejaVuSans-20" transform="translate(123.974609 0)"/>
      <use xlink:href="#DejaVuSans-44" transform="translate(155.761719 0)"/>
      <use xlink:href="#DejaVuSans-6f" transform="translate(232.763672 0)"/>
      <use xlink:href="#DejaVuSans-77" transform="translate(293.945312 0)"/>
      <use xlink:href="#DejaVuSans-6e" transform="translate(375.732422 0)"/>
      <use xlink:href="#DejaVuSans-20" transform="translate(439.111328 0)"/>
      <use xlink:href="#DejaVuSans-28" transform="translate(470.898438 0)"/>
      <use xlink:href="#DejaVuSans-4f" transform="translate(509.912109 0)"/>
      <use xlink:href="#DejaVuSans-54" transform="translate(588.623047 0)"/>
      <use xlink:href="#DejaVuSans-4d" transform="translate(649.707031 0)"/>
      <use xlink:href="#DejaVuSans-20" transform="translate(735.986328 0)"/>
      <use xlink:href="#DejaVuSans-70" transform="translate(767.773438 0)"/>
      <use xlink:href="#DejaVuSans-61" transform="translate(831.25 0)"/>
      <use xlink:href="#DejaVuSans-74" transform="translate(892.529297 0)"/>
      <use xlink:href="#DejaVuSans-68" transform="translate(931.738281 0)"/>
      <use xlink:href="#DejaVuSans-29" transform="translate(995.117188 0)"/>
     </g>
    </g>
    <g id="line2d_22">
     <path d="M 488.088859 186.490562 
L 497.588859 186.490562 
L 507.088859 186.490562 
" style="fill: none; stroke: #27ae60; stroke-opacity: 0.9; stroke-width: 1.6; stroke-linecap: square"/>
    </g>
    <g id="text_22">
     <!-- Alternating (ATM path) -->
     <g transform="translate(514.688859 189.815562) scale(0.095 -0.095)">
      <use xlink:href="#DejaVuSans-41"/>
      <use xlink:href="#DejaVuSans-6c" transform="translate(68.408203 0)"/>
      <use xlink:href="#DejaVuSans-74" transform="translate(96.191406 0)"/>
      <use xlink:href="#DejaVuSans-65" transform="translate(135.400391 0)"/>
      <use xlink:href="#DejaVuSans-72" transform="translate(196.923828 0)"/>
      <use xlink:href="#DejaVuSans-6e" transform="translate(236.287109 0)"/>
      <use xlink:href="#DejaVuSans-61" transform="translate(299.666016 0)"/>
      <use xlink:href="#DejaVuSans-74" transform="translate(360.945312 0)"/>
      <use xlink:href="#DejaVuSans-69" transform="translate(400.154297 0)"/>
      <use xlink:href="#DejaVuSans-6e" transform="translate(427.9375 0)"/>
      <use xlink:href="#DejaVuSans-67" transform="translate(491.316406 0)"/>
      <use xlink:href="#DejaVuSans-20" transform="translate(554.792969 0)"/>
      <use xlink:href="#DejaVuSans-28" transform="translate(586.580078 0)"/>
      <use xlink:href="#DejaVuSans-41" transform="translate(625.59375 0)"/>
      <use xlink:href="#DejaVuSans-54" transform="translate(686.251953 0)"/>
      <use xlink:href="#DejaVuSans-4d" transform="translate(747.335938 0)"/>
      <use xlink:href="#DejaVuSans-20" transform="translate(833.615234 0)"/>
      <use xlink:href="#DejaVuSans-70" transform="translate(865.402344 0)"/>
      <use xlink:href="#DejaVuSans-61" transform="translate(928.878906 0)"/>
      <use xlink:href="#DejaVuSans-74" transform="translate(990.158203 0)"/>
      <use xlink:href="#DejaVuSans-68" transform="translate(1029.367188 0)"/>
      <use xlink:href="#DejaVuSans-29" transform="translate(1092.746094 0)"/>
     </g>
    </g>
   </g>
  </g>
 </g>
 <defs>
  <clipPath id="p238e84daa9">
   <rect x="52.235625" y="37.877937" width="578.518" height="270.744"/>
  </clipPath>
 </defs>
</svg>
