<?xml version="1.0" encoding="utf-8" standalone="no"?>
<!DOCTYPE svg PUBLIC "-//W3C//DTD SVG 1.1//EN"
  "http://www.w3.org/Graphics/SVG/1.1/DTD/svg11.dtd">
<svg xmlns:xlink="http://www.w3.org/1999/xlink" width="511.357386pt" height="308.948977pt" viewBox="0 0 511.357386 308.948977" xmlns="http://www.w3.org/2000/svg" version="1.1">
 <metadata>
  <rdf:RDF xmlns:dc="http://purl.org/dc/elements/1.1/" xmlns:cc="http://creativecommons.org/ns#" xmlns:rdf="http://www.w3.org/1999/02/22-rdf-syntax-ns#">
   <cc:Work>
    <dc:type rdf:resource="http://purl.org/dc/dcmitype/StillImage"/>
    <dc:date>2026-05-09T22:11:21.420074</dc:date>
    <dc:format>image/svg+xml</dc:format>
    <dc:creator>
     <cc:Agent>
      <dc:title>Matplotlib v3.8.4, https://matplotlib.org/</dc:title>
     </cc:Agent>
    </dc:creator>
   </cc:Work>
  </rdf:RDF>
 </metadata>
 <defs>
  <style type="text/css">*{stroke-linejoin: round; stroke-linecap: butt}</style>
 </defs>
 <g id="figure_1">
  <g id="patch_1">
   <path d="M 0 308.948977 
L 511.357386 308.948977 
L 511.357386 0 
L 0 0 
z
" style="fill: #ffffff"/>
  </g>
  <g id="axes_1">
   <g id="patch_2">
    <path d="M 50.14375 271.392727 
L 504.157386 271.392727 
L 504.157386 22.32 
L 50.14375 22.32 
z
" style="fill: #ffffff"/>
   </g>
   <g id="matplotlib.axis_1">
    <g id="xtick_1">
     <g id="line2d_1">
      <path d="M 70.780733 271.392727 
L 70.780733 22.32 
" clip-path="url(#p54a9c4bd48)" style="fill: none; stroke: #b0b0b0; stroke-opacity: 0.3; stroke-width: 0.8; stroke-linecap: square"/>
     </g>
     <g id="line2d_2">
      <defs>
       <path id="m11e1ffdcc6" d="M 0 0 
L 0 3.5 
" style="stroke: #000000; stroke-width: 0.8"/>
      </defs>
      <g>
       <use xlink:href="#m11e1ffdcc6" x="70.780733" y="271.392727" style="stroke: #000000; stroke-width: 0.8"/>
      </g>
     </g>
     <g id="text_1">
      <!-- 60 -->
      <g transform="translate(64.418233 285.991165) scale(0.1 -0.1)">
       <defs>
        <path id="DejaVuSans-36" d="M 2113 2584 
Q 1688 2584 1439 2293 
Q 1191 2003 1191 1497 
Q 1191 994 1439 701 
Q 1688 409 2113 409 
Q 2538 409 2786 701 
Q 3034 994 3034 1497 
Q 3034 2003 2786 2293 
Q 2538 2584 2113 2584 
z
M 3366 4563 
L 3366 3988 
Q 3128 4100 2886 4159 
Q 2644 4219 2406 4219 
Q 1781 4219 1451 3797 
Q 1122 3375 1075 2522 
Q 1259 2794 1537 2939 
Q 1816 3084 2150 3084 
Q 2853 3084 3261 2657 
Q 3669 2231 3669 1497 
Q 3669 778 3244 343 
Q 2819 -91 2113 -91 
Q 1303 -91 875 529 
Q 447 1150 447 2328 
Q 447 3434 972 4092 
Q 1497 4750 2381 4750 
Q 2619 4750 2861 4703 
Q 3103 4656 3366 4563 
z
" transform="scale(0.015625)"/>
        <path id="DejaVuSans-30" d="M 2034 4250 
Q 1547 4250 1301 3770 
Q 1056 3291 1056 2328 
Q 1056 1369 1301 889 
Q 1547 409 2034 409 
Q 2525 409 2770 889 
Q 3016 1369 3016 2328 
Q 3016 3291 2770 3770 
Q 2525 4250 2034 4250 
z
M 2034 4750 
Q 2819 4750 3233 4129 
Q 3647 3509 3647 2328 
Q 3647 1150 3233 529 
Q 2819 -91 2034 -91 
Q 1250 -91 836 529 
Q 422 1150 422 2328 
Q 422 3509 836 4129 
Q 1250 4750 2034 4750 
z
" transform="scale(0.015625)"/>
       </defs>
       <use xlink:href="#DejaVuSans-36"/>
       <use xlink:href="#DejaVuSans-30" x="63.623047"/>
      </g>
     </g>
    </g>
    <g id="xtick_2">
     <g id="line2d_3">
      <path d="M 122.373192 271.392727 
L 122.373192 22.32 
" clip-path="url(#p54a9c4bd48)" style="fill: none; stroke: #b0b0b0; stroke-opacity: 0.3; stroke-width: 0.8; stroke-linecap: square"/>
     </g>
     <g id="line2d_4">
      <g>
       <use xlink:href="#m11e1ffdcc6" x="122.373192" y="271.392727" style="stroke: #000000; stroke-width: 0.8"/>
      </g>
     </g>
     <g id="text_2">
      <!-- 70 -->
      <g transform="translate(116.010692 285.991165) scale(0.1 -0.1)">
       <defs>
        <path id="DejaVuSans-37" d="M 525 4666 
L 3525 4666 
L 3525 4397 
L 1831 0 
L 1172 0 
L 2766 4134 
L 525 4134 
L 525 4666 
z
" transform="scale(0.015625)"/>
       </defs>
       <use xlink:href="#DejaVuSans-37"/>
       <use xlink:href="#DejaVuSans-30" x="63.623047"/>
      </g>
     </g>
    </g>
    <g id="xtick_3">
     <g id="line2d_5">
      <path d="M 173.965651 271.392727 
L 173.965651 22.32 
" clip-path="url(#p54a9c4bd48)" style="fill: none; stroke: #b0b0b0; stroke-opacity: 0.3; stroke-width: 0.8; stroke-linecap: square"/>
     </g>
     <g id="line2d_6">
      <g>
       <use xlink:href="#m11e1ffdcc6" x="173.965651" y="271.392727" style="stroke: #000000; stroke-width: 0.8"/>
      </g>
     </g>
     <g id="text_3">
      <!-- 80 -->
      <g transform="translate(167.603151 285.991165) scale(0.1 -0.1)">
       <defs>
        <path id="DejaVuSans-38" d="M 2034 2216 
Q 1584 2216 1326 1975 
Q 1069 1734 1069 1313 
Q 1069 891 1326 650 
Q 1584 409 2034 409 
Q 2484 409 2743 651 
Q 3003 894 3003 1313 
Q 3003 1734 2745 1975 
Q 2488 2216 2034 2216 
z
M 1403 2484 
Q 997 2584 770 2862 
Q 544 3141 544 3541 
Q 544 4100 942 4425 
Q 1341 4750 2034 4750 
Q 2731 4750 3128 4425 
Q 3525 4100 3525 3541 
Q 3525 3141 3298 2862 
Q 3072 2584 2669 2484 
Q 3125 2378 3379 2068 
Q 3634 1759 3634 1313 
Q 3634 634 3220 271 
Q 2806 -91 2034 -91 
Q 1263 -91 848 271 
Q 434 634 434 1313 
Q 434 1759 690 2068 
Q 947 2378 1403 2484 
z
M 1172 3481 
Q 1172 3119 1398 2916 
Q 1625 2713 2034 2713 
Q 2441 2713 2670 2916 
Q 2900 3119 2900 3481 
Q 2900 3844 2670 4047 
Q 2441 4250 2034 4250 
Q 1625 4250 1398 4047 
Q 1172 3844 1172 3481 
z
" transform="scale(0.015625)"/>
       </defs>
       <use xlink:href="#DejaVuSans-38"/>
       <use xlink:href="#DejaVuSans-30" x="63.623047"/>
      </g>
     </g>
    </g>
    <g id="xtick_4">
     <g id="line2d_7">
      <path d="M 225.55811 271.392727 
L 225.55811 22.32 
" clip-path="url(#p54a9c4bd48)" style="fill: none; stroke: #b0b0b0; stroke-opacity: 0.3; stroke-width: 0.8; stroke-linecap: square"/>
     </g>
     <g id="line2d_8">
      <g>
       <use xlink:href="#m11e1ffdcc6" x="225.55811" y="271.392727" style="stroke: #000000; stroke-width: 0.8"/>
      </g>
     </g>
     <g id="text_4">
      <!-- 90 -->
      <g transform="translate(219.19561 285.991165) scale(0.1 -0.1)">
       <defs>
        <path id="DejaVuSans-39" d="M 703 97 
L 703 672 
Q 941 559 1184 500 
Q 1428 441 1663 441 
Q 2288 441 2617 861 
Q 2947 1281 2994 2138 
Q 2813 1869 2534 1725 
Q 2256 1581 1919 1581 
Q 1219 1581 811 2004 
Q 403 2428 403 3163 
Q 403 3881 828 4315 
Q 1253 4750 1959 4750 
Q 2769 4750 3195 4129 
Q 3622 3509 3622 2328 
Q 3622 1225 3098 567 
Q 2575 -91 1691 -91 
Q 1453 -91 1209 -44 
Q 966 3 703 97 
z
M 1959 2075 
Q 2384 2075 2632 2365 
Q 2881 2656 2881 3163 
Q 2881 3666 2632 3958 
Q 2384 4250 1959 4250 
Q 1534 4250 1286 3958 
Q 1038 3666 1038 3163 
Q 1038 2656 1286 2365 
Q 1534 2075 1959 2075 
z
" transform="scale(0.015625)"/>
       </defs>
       <use xlink:href="#DejaVuSans-39"/>
       <use xlink:href="#DejaVuSans-30" x="63.623047"/>
      </g>
     </g>
    </g>
    <g id="xtick_5">
     <g id="line2d_9">
      <path d="M 277.150568 271.392727 
L 277.150568 22.32 
" clip-path="url(#p54a9c4bd48)" style="fill: none; stroke: #b0b0b0; stroke-opacity: 0.3; stroke-width: 0.8; stroke-linecap: square"/>
     </g>
     <g id="line2d_10">
      <g>
       <use xlink:href="#m11e1ffdcc6" x="277.150568" y="271.392727" style="stroke: #000000; stroke-width: 0.8"/>
      </g>
     </g>
     <g id="text_5">
      <!-- 100 -->
      <g transform="translate(267.606818 285.991165) scale(0.1 -0.1)">
       <defs>
        <path id="DejaVuSans-31" d="M 794 531 
L 1825 531 
L 1825 4091 
L 703 3866 
L 703 4441 
L 1819 4666 
L 2450 4666 
L 2450 531 
L 3481 531 
L 3481 0 
L 794 0 
L 794 531 
z
" transform="scale(0.015625)"/>
       </defs>
       <use xlink:href="#DejaVuSans-31"/>
       <use xlink:href="#DejaVuSans-30" x="63.623047"/>
       <use xlink:href="#DejaVuSans-30" x="127.246094"/>
      </g>
     </g>
    </g>
    <g id="xtick_6">
     <g id="line2d_11">
      <path d="M 328.743027 271.392727 
L 328.743027 22.32 
" clip-path="url(#p54a9c4bd48)" style="fill: none; stroke: #b0b0b0; stroke-opacity: 0.3; stroke-width: 0.8; stroke-linecap: square"/>
     </g>
     <g id="line2d_12">
      <g>
       <use xlink:href="#m11e1ffdcc6" x="328.743027" y="271.392727" style="stroke: #000000; stroke-width: 0.8"/>
      </g>
     </g>
     <g id="text_6">
      <!-- 110 -->
      <g transform="translate(319.199277 285.991165) scale(0.1 -0.1)">
       <use xlink:href="#DejaVuSans-31"/>
       <use xlink:href="#DejaVuSans-31" x="63.623047"/>
       <use xlink:href="#DejaVuSans-30" x="127.246094"/>
      </g>
     </g>
    </g>
    <g id="xtick_7">
     <g id="line2d_13">
      <path d="M 380.335486 271.392727 
L 380.335486 22.32 
" clip-path="url(#p54a9c4bd48)" style="fill: none; stroke: #b0b0b0; stroke-opacity: 0.3; stroke-width: 0.8; stroke-linecap: square"/>
     </g>
     <g id="line2d_14">
      <g>
       <use xlink:href="#m11e1ffdcc6" x="380.335486" y="271.392727" style="stroke: #000000; stroke-width: 0.8"/>
      </g>
     </g>
     <g id="text_7">
      <!-- 120 -->
      <g transform="translate(370.791736 285.991165) scale(0.1 -0.1)">
       <defs>
        <path id="DejaVuSans-32" d="M 1228 531 
L 3431 531 
L 3431 0 
L 469 0 
L 469 531 
Q 828 903 1448 1529 
Q 2069 2156 2228 2338 
Q 2531 2678 2651 2914 
Q 2772 3150 2772 3378 
Q 2772 3750 2511 3984 
Q 2250 4219 1831 4219 
Q 1534 4219 1204 4116 
Q 875 4013 500 3803 
L 500 4441 
Q 881 4594 1212 4672 
Q 1544 4750 1819 4750 
Q 2544 4750 2975 4387 
Q 3406 4025 3406 3419 
Q 3406 3131 3298 2873 
Q 3191 2616 2906 2266 
Q 2828 2175 2409 1742 
Q 1991 1309 1228 531 
z
" transform="scale(0.015625)"/>
       </defs>
       <use xlink:href="#DejaVuSans-31"/>
       <use xlink:href="#DejaVuSans-32" x="63.623047"/>
       <use xlink:href="#DejaVuSans-30" x="127.246094"/>
      </g>
     </g>
    </g>
    <g id="xtick_8">
     <g id="line2d_15">
      <path d="M 431.927944 271.392727 
L 431.927944 22.32 
" clip-path="url(#p54a9c4bd48)" style="fill: none; stroke: #b0b0b0; stroke-opacity: 0.3; stroke-width: 0.8; stroke-linecap: square"/>
     </g>
     <g id="line2d_16">
      <g>
       <use xlink:href="#m11e1ffdcc6" x="431.927944" y="271.392727" style="stroke: #000000; stroke-width: 0.8"/>
      </g>
     </g>
     <g id="text_8">
      <!-- 130 -->
      <g transform="translate(422.384194 285.991165) scale(0.1 -0.1)">
       <defs>
        <path id="DejaVuSans-33" d="M 2597 2516 
Q 3050 2419 3304 2112 
Q 3559 1806 3559 1356 
Q 3559 666 3084 287 
Q 2609 -91 1734 -91 
Q 1441 -91 1130 -33 
Q 819 25 488 141 
L 488 750 
Q 750 597 1062 519 
Q 1375 441 1716 441 
Q 2309 441 2620 675 
Q 2931 909 2931 1356 
Q 2931 1769 2642 2001 
Q 2353 2234 1838 2234 
L 1294 2234 
L 1294 2753 
L 1863 2753 
Q 2328 2753 2575 2939 
Q 2822 3125 2822 3475 
Q 2822 3834 2567 4026 
Q 2313 4219 1838 4219 
Q 1578 4219 1281 4162 
Q 984 4106 628 3988 
L 628 4550 
Q 988 4650 1302 4700 
Q 1616 4750 1894 4750 
Q 2613 4750 3031 4423 
Q 3450 4097 3450 3541 
Q 3450 3153 3228 2886 
Q 3006 2619 2597 2516 
z
" transform="scale(0.015625)"/>
       </defs>
       <use xlink:href="#DejaVuSans-31"/>
       <use xlink:href="#DejaVuSans-33" x="63.623047"/>
       <use xlink:href="#DejaVuSans-30" x="127.246094"/>
      </g>
     </g>
    </g>
    <g id="xtick_9">
     <g id="line2d_17">
      <path d="M 483.520403 271.392727 
L 483.520403 22.32 
" clip-path="url(#p54a9c4bd48)" style="fill: none; stroke: #b0b0b0; stroke-opacity: 0.3; stroke-width: 0.8; stroke-linecap: square"/>
     </g>
     <g id="line2d_18">
      <g>
       <use xlink:href="#m11e1ffdcc6" x="483.520403" y="271.392727" style="stroke: #000000; stroke-width: 0.8"/>
      </g>
     </g>
     <g id="text_9">
      <!-- 140 -->
      <g transform="translate(473.976653 285.991165) scale(0.1 -0.1)">
       <defs>
        <path id="DejaVuSans-34" d="M 2419 4116 
L 825 1625 
L 2419 1625 
L 2419 4116 
z
M 2253 4666 
L 3047 4666 
L 3047 1625 
L 3713 1625 
L 3713 1100 
L 3047 1100 
L 3047 0 
L 2419 0 
L 2419 1100 
L 313 1100 
L 313 1709 
L 2253 4666 
z
" transform="scale(0.015625)"/>
       </defs>
       <use xlink:href="#DejaVuSans-31"/>
       <use xlink:href="#DejaVuSans-34" x="63.623047"/>
       <use xlink:href="#DejaVuSans-30" x="127.246094"/>
      </g>
     </g>
    </g>
    <g id="text_10">
     <!-- $S$ -->
     <g transform="translate(273.950568 299.66929) scale(0.1 -0.1)">
      <defs>
       <path id="DejaVuSans-Oblique-53" d="M 3859 4513 
L 3738 3897 
Q 3422 4066 3111 4152 
Q 2800 4238 2509 4238 
Q 1944 4238 1609 3991 
Q 1275 3744 1275 3334 
Q 1275 3109 1398 2989 
Q 1522 2869 2034 2731 
L 2413 2638 
Q 3053 2472 3303 2217 
Q 3553 1963 3553 1503 
Q 3553 797 2998 353 
Q 2444 -91 1538 -91 
Q 1166 -91 791 -17 
Q 416 56 38 206 
L 166 856 
Q 513 641 861 531 
Q 1209 422 1556 422 
Q 2147 422 2503 684 
Q 2859 947 2859 1369 
Q 2859 1650 2717 1795 
Q 2575 1941 2106 2059 
L 1728 2156 
Q 1081 2325 845 2545 
Q 609 2766 609 3163 
Q 609 3859 1145 4304 
Q 1681 4750 2541 4750 
Q 2875 4750 3203 4690 
Q 3531 4631 3859 4513 
z
" transform="scale(0.015625)"/>
      </defs>
      <use xlink:href="#DejaVuSans-Oblique-53" transform="translate(0 0.78125)"/>
     </g>
    </g>
   </g>
   <g id="matplotlib.axis_2">
    <g id="ytick_1">
     <g id="line2d_19">
      <path d="M 50.14375 260.07124 
L 504.157386 260.07124 
" clip-path="url(#p54a9c4bd48)" style="fill: none; stroke: #b0b0b0; stroke-opacity: 0.3; stroke-width: 0.8; stroke-linecap: square"/>
     </g>
     <g id="line2d_20">
      <defs>
       <path id="m75adf692ee" d="M 0 0 
L -3.5 0 
" style="stroke: #000000; stroke-width: 0.8"/>
      </defs>
      <g>
       <use xlink:href="#m75adf692ee" x="50.14375" y="260.07124" style="stroke: #000000; stroke-width: 0.8"/>
      </g>
     </g>
     <g id="text_11">
      <!-- 0.00 -->
      <g transform="translate(20.878125 263.870458) scale(0.1 -0.1)">
       <defs>
        <path id="DejaVuSans-2e" d="M 684 794 
L 1344 794 
L 1344 0 
L 684 0 
L 684 794 
z
" transform="scale(0.015625)"/>
       </defs>
       <use xlink:href="#DejaVuSans-30"/>
       <use xlink:href="#DejaVuSans-2e" x="63.623047"/>
       <use xlink:href="#DejaVuSans-30" x="95.410156"/>
       <use xlink:href="#DejaVuSans-30" x="159.033203"/>
      </g>
     </g>
    </g>
    <g id="ytick_2">
     <g id="line2d_21">
      <path d="M 50.14375 220.027542 
L 504.157386 220.027542 
" clip-path="url(#p54a9c4bd48)" style="fill: none; stroke: #b0b0b0; stroke-opacity: 0.3; stroke-width: 0.8; stroke-linecap: square"/>
     </g>
     <g id="line2d_22">
      <g>
       <use xlink:href="#m75adf692ee" x="50.14375" y="220.027542" style="stroke: #000000; stroke-width: 0.8"/>
      </g>
     </g>
     <g id="text_12">
      <!-- 0.02 -->
      <g transform="translate(20.878125 223.82676) scale(0.1 -0.1)">
       <use xlink:href="#DejaVuSans-30"/>
       <use xlink:href="#DejaVuSans-2e" x="63.623047"/>
       <use xlink:href="#DejaVuSans-30" x="95.410156"/>
       <use xlink:href="#DejaVuSans-32" x="159.033203"/>
      </g>
     </g>
    </g>
    <g id="ytick_3">
     <g id="line2d_23">
      <path d="M 50.14375 179.983843 
L 504.157386 179.983843 
" clip-path="url(#p54a9c4bd48)" style="fill: none; stroke: #b0b0b0; stroke-opacity: 0.3; stroke-width: 0.8; stroke-linecap: square"/>
     </g>
     <g id="line2d_24">
      <g>
       <use xlink:href="#m75adf692ee" x="50.14375" y="179.983843" style="stroke: #000000; stroke-width: 0.8"/>
      </g>
     </g>
     <g id="text_13">
      <!-- 0.04 -->
      <g transform="translate(20.878125 183.783062) scale(0.1 -0.1)">
       <use xlink:href="#DejaVuSans-30"/>
       <use xlink:href="#DejaVuSans-2e" x="63.623047"/>
       <use xlink:href="#DejaVuSans-30" x="95.410156"/>
       <use xlink:href="#DejaVuSans-34" x="159.033203"/>
      </g>
     </g>
    </g>
    <g id="ytick_4">
     <g id="line2d_25">
      <path d="M 50.14375 139.940145 
L 504.157386 139.940145 
" clip-path="url(#p54a9c4bd48)" style="fill: none; stroke: #b0b0b0; stroke-opacity: 0.3; stroke-width: 0.8; stroke-linecap: square"/>
     </g>
     <g id="line2d_26">
      <g>
       <use xlink:href="#m75adf692ee" x="50.14375" y="139.940145" style="stroke: #000000; stroke-width: 0.8"/>
      </g>
     </g>
     <g id="text_14">
      <!-- 0.06 -->
      <g transform="translate(20.878125 143.739364) scale(0.1 -0.1)">
       <use xlink:href="#DejaVuSans-30"/>
       <use xlink:href="#DejaVuSans-2e" x="63.623047"/>
       <use xlink:href="#DejaVuSans-30" x="95.410156"/>
       <use xlink:href="#DejaVuSans-36" x="159.033203"/>
      </g>
     </g>
    </g>
    <g id="ytick_5">
     <g id="line2d_27">
      <path d="M 50.14375 99.896447 
L 504.157386 99.896447 
" clip-path="url(#p54a9c4bd48)" style="fill: none; stroke: #b0b0b0; stroke-opacity: 0.3; stroke-width: 0.8; stroke-linecap: square"/>
     </g>
     <g id="line2d_28">
      <g>
       <use xlink:href="#m75adf692ee" x="50.14375" y="99.896447" style="stroke: #000000; stroke-width: 0.8"/>
      </g>
     </g>
     <g id="text_15">
      <!-- 0.08 -->
      <g transform="translate(20.878125 103.695666) scale(0.1 -0.1)">
       <use xlink:href="#DejaVuSans-30"/>
       <use xlink:href="#DejaVuSans-2e" x="63.623047"/>
       <use xlink:href="#DejaVuSans-30" x="95.410156"/>
       <use xlink:href="#DejaVuSans-38" x="159.033203"/>
      </g>
     </g>
    </g>
    <g id="ytick_6">
     <g id="line2d_29">
      <path d="M 50.14375 59.852749 
L 504.157386 59.852749 
" clip-path="url(#p54a9c4bd48)" style="fill: none; stroke: #b0b0b0; stroke-opacity: 0.3; stroke-width: 0.8; stroke-linecap: square"/>
     </g>
     <g id="line2d_30">
      <g>
       <use xlink:href="#m75adf692ee" x="50.14375" y="59.852749" style="stroke: #000000; stroke-width: 0.8"/>
      </g>
     </g>
     <g id="text_16">
      <!-- 0.10 -->
      <g transform="translate(20.878125 63.651968) scale(0.1 -0.1)">
       <use xlink:href="#DejaVuSans-30"/>
       <use xlink:href="#DejaVuSans-2e" x="63.623047"/>
       <use xlink:href="#DejaVuSans-31" x="95.410156"/>
       <use xlink:href="#DejaVuSans-30" x="159.033203"/>
      </g>
     </g>
    </g>
    <g id="text_17">
     <!-- $\Gamma$ -->
     <g transform="translate(14.798438 149.656364) rotate(-90) scale(0.1 -0.1)">
      <defs>
       <path id="DejaVuSans-393" d="M 628 0 
L 628 4666 
L 3531 4666 
L 3531 4134 
L 1259 4134 
L 1259 0 
L 628 0 
z
" transform="scale(0.015625)"/>
      </defs>
      <use xlink:href="#DejaVuSans-393" transform="translate(0 0.09375)"/>
     </g>
    </g>
   </g>
   <g id="line2d_31">
    <path d="M 70.780733 247.904282 
L 83.678848 244.81256 
L 130.627986 233.311707 
L 140.946477 231.146018 
L 150.23312 229.410848 
L 159.003838 227.984496 
L 167.774556 226.782237 
L 176.029349 225.865621 
L 184.284143 225.162319 
L 192.538936 224.672795 
L 201.309654 224.383025 
L 210.080372 224.322364 
L 218.85109 224.478798 
L 228.137732 224.864363 
L 237.9403 225.494396 
L 248.258791 226.376373 
L 259.609132 227.567497 
L 272.507247 229.148022 
L 287.984985 231.278815 
L 309.653817 234.512282 
L 356.08703 241.497006 
L 376.208089 244.261311 
L 394.781374 246.587186 
L 412.32281 248.563997 
L 429.864246 250.321918 
L 447.921606 251.907707 
L 466.494892 253.314761 
L 483.520403 254.420577 
L 483.520403 254.420577 
" clip-path="url(#p54a9c4bd48)" style="fill: none; stroke: #463480; stroke-width: 1.5; stroke-linecap: square"/>
   </g>
   <g id="line2d_32">
    <path d="M 70.780733 257.880671 
L 78.519602 257.002557 
L 85.742546 255.969026 
L 92.965491 254.707114 
L 99.67251 253.317178 
L 106.37953 251.710162 
L 113.08655 249.885855 
L 120.309494 247.686378 
L 128.048363 245.080425 
L 136.303156 242.055881 
L 146.105723 238.215725 
L 165.710857 230.209882 
L 176.545274 225.932691 
L 184.800067 222.898606 
L 192.023011 220.471358 
L 198.730031 218.449584 
L 204.921126 216.809041 
L 211.112221 215.405157 
L 216.787392 214.338659 
L 222.462562 213.490847 
L 228.137732 212.865831 
L 233.812903 212.464377 
L 239.488073 212.284086 
L 245.163244 212.319636 
L 250.838414 212.563068 
L 257.029509 213.053592 
L 263.220604 213.763267 
L 269.927624 214.758222 
L 277.150568 216.064302 
L 284.889437 217.696316 
L 293.660155 219.784366 
L 303.978647 222.485058 
L 317.908611 226.389119 
L 351.959633 236.034921 
L 364.857748 239.398088 
L 376.208089 242.134635 
L 387.042505 244.527715 
L 397.876921 246.696168 
L 408.711338 248.63844 
L 419.545754 250.359869 
L 430.896095 251.93784 
L 442.762361 253.358244 
L 455.144551 254.613414 
L 468.55859 255.741305 
L 483.004478 256.723207 
L 483.520403 256.754295 
L 483.520403 256.754295 
" clip-path="url(#p54a9c4bd48)" style="fill: none; stroke: #2b748e; stroke-width: 1.5; stroke-linecap: square"/>
   </g>
   <g id="line2d_33">
    <path d="M 70.780733 260.071239 
L 140.946477 259.960593 
L 151.264969 259.705435 
L 157.971989 259.334178 
L 163.647159 258.79616 
L 168.29048 258.132255 
L 172.417877 257.31642 
L 176.029349 256.385075 
L 179.640821 255.210357 
L 182.736369 253.979204 
L 185.831916 252.514086 
L 188.927464 250.79025 
L 192.023011 248.784724 
L 195.118559 246.477404 
L 198.214106 243.852184 
L 201.309654 240.898106 
L 204.405201 237.610438 
L 207.500749 233.991661 
L 210.596296 230.052282 
L 214.207769 225.077134 
L 218.335165 218.948664 
L 222.978487 211.604928 
L 229.685506 200.509226 
L 237.424375 187.768175 
L 241.551772 181.366939 
L 245.163244 176.167605 
L 248.258791 172.09656 
L 250.838414 169.024241 
L 253.418037 166.278037 
L 255.99766 163.886569 
L 258.061358 162.245172 
L 260.125057 160.856436 
L 262.188755 159.728359 
L 264.252454 158.866772 
L 266.316152 158.275302 
L 268.37985 157.955369 
L 270.443549 157.906212 
L 272.507247 158.124944 
L 274.570945 158.606631 
L 276.634644 159.344397 
L 278.698342 160.32955 
L 280.76204 161.551729 
L 282.825739 162.999061 
L 285.405362 165.104617 
L 287.984985 167.512978 
L 291.080532 170.759636 
L 294.17608 174.342575 
L 297.787552 178.870653 
L 302.430873 185.100898 
L 309.137893 194.551093 
L 318.94046 208.356275 
L 324.099706 215.234208 
L 328.743027 221.044173 
L 332.870424 225.848758 
L 336.99782 230.282094 
L 340.609292 233.843055 
L 344.220764 237.102854 
L 347.832237 240.063855 
L 351.443709 242.733505 
L 355.055181 245.123345 
L 358.666653 247.248054 
L 362.278125 249.12458 
L 365.889597 250.771352 
L 370.016994 252.39672 
L 374.14439 253.776102 
L 378.787712 255.069251 
L 383.431033 256.125626 
L 388.590279 257.065035 
L 394.265449 257.864108 
L 400.456544 258.513597 
L 407.679489 259.049037 
L 416.450207 259.470668 
L 427.800548 259.77888 
L 443.79421 259.9711 
L 472.685987 260.058847 
L 483.520403 260.065837 
L 483.520403 260.065837 
" clip-path="url(#p54a9c4bd48)" style="fill: none; stroke: #25ac82; stroke-width: 1.5; stroke-linecap: square"/>
   </g>
   <g id="line2d_34">
    <path d="M 70.780733 260.07124 
L 209.048523 259.968068 
L 214.207769 259.722323 
L 217.303316 259.386187 
L 219.882939 258.906634 
L 221.946637 258.326576 
L 224.010336 257.503776 
L 225.55811 256.680225 
L 227.105883 255.636186 
L 228.653657 254.32673 
L 230.201431 252.701832 
L 231.749205 250.706891 
L 233.296978 248.28358 
L 234.844752 245.371093 
L 236.392526 241.907787 
L 237.9403 237.833226 
L 239.488073 233.090608 
L 241.035847 227.629508 
L 242.583621 221.408859 
L 244.131395 214.400064 
L 246.195093 203.809068 
L 248.258791 191.817221 
L 250.32249 178.514431 
L 252.902113 160.302014 
L 256.513585 132.783307 
L 262.188755 89.287254 
L 264.252454 74.957655 
L 266.316152 62.169137 
L 267.863926 53.851889 
L 269.411699 46.807896 
L 270.443549 42.887904 
L 271.475398 39.62859 
L 272.507247 37.057162 
L 273.539096 35.194205 
L 274.055021 34.53296 
L 274.570945 34.053424 
L 275.08687 33.75621 
L 275.602794 33.641488 
L 276.118719 33.708985 
L 276.634644 33.957994 
L 277.150568 34.387371 
L 277.666493 34.995547 
L 278.698342 36.739942 
L 279.730191 39.170461 
L 280.76204 42.260259 
L 281.793889 45.976844 
L 283.341663 52.643471 
L 284.889437 60.489657 
L 286.953135 72.503173 
L 289.016834 85.906665 
L 292.112381 107.674541 
L 299.335325 159.255056 
L 301.914948 175.965508 
L 304.494571 191.109879 
L 306.55827 201.955723 
L 308.621968 211.621343 
L 310.685666 220.107879 
L 312.749365 227.453587 
L 314.297138 232.253445 
L 315.844912 236.484458 
L 317.392686 240.186849 
L 318.94046 243.403568 
L 320.488233 246.178823 
L 322.036007 248.556826 
L 323.583781 250.580767 
L 325.131555 252.292015 
L 326.679329 253.729512 
L 328.227102 254.92936 
L 330.290801 256.216082 
L 332.354499 257.208023 
L 334.418197 257.964533 
L 336.99782 258.654147 
L 340.093368 259.207089 
L 343.70484 259.598182 
L 348.348161 259.861676 
L 355.571105 260.017045 
L 371.564768 260.069336 
L 483.520403 260.07124 
L 483.520403 260.07124 
" clip-path="url(#p54a9c4bd48)" style="fill: none; stroke: #9bd93c; stroke-width: 1.5; stroke-linecap: square"/>
   </g>
   <g id="line2d_35">
    <path d="M 277.150568 271.392727 
L 277.150568 22.32 
" clip-path="url(#p54a9c4bd48)" style="fill: none; stroke-dasharray: 1.85,0.8; stroke-dashoffset: 0; stroke: #000000; stroke-opacity: 0.4; stroke-width: 0.5"/>
   </g>
   <g id="patch_3">
    <path d="M 50.14375 271.392727 
L 50.14375 22.32 
" style="fill: none; stroke: #000000; stroke-width: 0.8; stroke-linejoin: miter; stroke-linecap: square"/>
   </g>
   <g id="patch_4">
    <path d="M 50.14375 271.392727 
L 504.157386 271.392727 
" style="fill: none; stroke: #000000; stroke-width: 0.8; stroke-linejoin: miter; stroke-linecap: square"/>
   </g>
   <g id="text_18">
    <!-- Gamma vs spot at decreasing maturity   ($K=100$,  $r=5\%$,  $\sigma=25\%$) -->
    <g transform="translate(71.050568 16.32) scale(0.12 -0.12)">
     <defs>
      <path id="DejaVuSans-47" d="M 3809 666 
L 3809 1919 
L 2778 1919 
L 2778 2438 
L 4434 2438 
L 4434 434 
Q 4069 175 3628 42 
Q 3188 -91 2688 -91 
Q 1594 -91 976 548 
Q 359 1188 359 2328 
Q 359 3472 976 4111 
Q 1594 4750 2688 4750 
Q 3144 4750 3555 4637 
Q 3966 4525 4313 4306 
L 4313 3634 
Q 3963 3931 3569 4081 
Q 3175 4231 2741 4231 
Q 1884 4231 1454 3753 
Q 1025 3275 1025 2328 
Q 1025 1384 1454 906 
Q 1884 428 2741 428 
Q 3075 428 3337 486 
Q 3600 544 3809 666 
z
" transform="scale(0.015625)"/>
      <path id="DejaVuSans-61" d="M 2194 1759 
Q 1497 1759 1228 1600 
Q 959 1441 959 1056 
Q 959 750 1161 570 
Q 1363 391 1709 391 
Q 2188 391 2477 730 
Q 2766 1069 2766 1631 
L 2766 1759 
L 2194 1759 
z
M 3341 1997 
L 3341 0 
L 2766 0 
L 2766 531 
Q 2569 213 2275 61 
Q 1981 -91 1556 -91 
Q 1019 -91 701 211 
Q 384 513 384 1019 
Q 384 1609 779 1909 
Q 1175 2209 1959 2209 
L 2766 2209 
L 2766 2266 
Q 2766 2663 2505 2880 
Q 2244 3097 1772 3097 
Q 1472 3097 1187 3025 
Q 903 2953 641 2809 
L 641 3341 
Q 956 3463 1253 3523 
Q 1550 3584 1831 3584 
Q 2591 3584 2966 3190 
Q 3341 2797 3341 1997 
z
" transform="scale(0.015625)"/>
      <path id="DejaVuSans-6d" d="M 3328 2828 
Q 3544 3216 3844 3400 
Q 4144 3584 4550 3584 
Q 5097 3584 5394 3201 
Q 5691 2819 5691 2113 
L 5691 0 
L 5113 0 
L 5113 2094 
Q 5113 2597 4934 2840 
Q 4756 3084 4391 3084 
Q 3944 3084 3684 2787 
Q 3425 2491 3425 1978 
L 3425 0 
L 2847 0 
L 2847 2094 
Q 2847 2600 2669 2842 
Q 2491 3084 2119 3084 
Q 1678 3084 1418 2786 
Q 1159 2488 1159 1978 
L 1159 0 
L 581 0 
L 581 3500 
L 1159 3500 
L 1159 2956 
Q 1356 3278 1631 3431 
Q 1906 3584 2284 3584 
Q 2666 3584 2933 3390 
Q 3200 3197 3328 2828 
z
" transform="scale(0.015625)"/>
      <path id="DejaVuSans-20" transform="scale(0.015625)"/>
      <path id="DejaVuSans-76" d="M 191 3500 
L 800 3500 
L 1894 563 
L 2988 3500 
L 3597 3500 
L 2284 0 
L 1503 0 
L 191 3500 
z
" transform="scale(0.015625)"/>
      <path id="DejaVuSans-73" d="M 2834 3397 
L 2834 2853 
Q 2591 2978 2328 3040 
Q 2066 3103 1784 3103 
Q 1356 3103 1142 2972 
Q 928 2841 928 2578 
Q 928 2378 1081 2264 
Q 1234 2150 1697 2047 
L 1894 2003 
Q 2506 1872 2764 1633 
Q 3022 1394 3022 966 
Q 3022 478 2636 193 
Q 2250 -91 1575 -91 
Q 1294 -91 989 -36 
Q 684 19 347 128 
L 347 722 
Q 666 556 975 473 
Q 1284 391 1588 391 
Q 1994 391 2212 530 
Q 2431 669 2431 922 
Q 2431 1156 2273 1281 
Q 2116 1406 1581 1522 
L 1381 1569 
Q 847 1681 609 1914 
Q 372 2147 372 2553 
Q 372 3047 722 3315 
Q 1072 3584 1716 3584 
Q 2034 3584 2315 3537 
Q 2597 3491 2834 3397 
z
" transform="scale(0.015625)"/>
      <path id="DejaVuSans-70" d="M 1159 525 
L 1159 -1331 
L 581 -1331 
L 581 3500 
L 1159 3500 
L 1159 2969 
Q 1341 3281 1617 3432 
Q 1894 3584 2278 3584 
Q 2916 3584 3314 3078 
Q 3713 2572 3713 1747 
Q 3713 922 3314 415 
Q 2916 -91 2278 -91 
Q 1894 -91 1617 61 
Q 1341 213 1159 525 
z
M 3116 1747 
Q 3116 2381 2855 2742 
Q 2594 3103 2138 3103 
Q 1681 3103 1420 2742 
Q 1159 2381 1159 1747 
Q 1159 1113 1420 752 
Q 1681 391 2138 391 
Q 2594 391 2855 752 
Q 3116 1113 3116 1747 
z
" transform="scale(0.015625)"/>
      <path id="DejaVuSans-6f" d="M 1959 3097 
Q 1497 3097 1228 2736 
Q 959 2375 959 1747 
Q 959 1119 1226 758 
Q 1494 397 1959 397 
Q 2419 397 2687 759 
Q 2956 1122 2956 1747 
Q 2956 2369 2687 2733 
Q 2419 3097 1959 3097 
z
M 1959 3584 
Q 2709 3584 3137 3096 
Q 3566 2609 3566 1747 
Q 3566 888 3137 398 
Q 2709 -91 1959 -91 
Q 1206 -91 779 398 
Q 353 888 353 1747 
Q 353 2609 779 3096 
Q 1206 3584 1959 3584 
z
" transform="scale(0.015625)"/>
      <path id="DejaVuSans-74" d="M 1172 4494 
L 1172 3500 
L 2356 3500 
L 2356 3053 
L 1172 3053 
L 1172 1153 
Q 1172 725 1289 603 
Q 1406 481 1766 481 
L 2356 481 
L 2356 0 
L 1766 0 
Q 1100 0 847 248 
Q 594 497 594 1153 
L 594 3053 
L 172 3053 
L 172 3500 
L 594 3500 
L 594 4494 
L 1172 4494 
z
" transform="scale(0.015625)"/>
      <path id="DejaVuSans-64" d="M 2906 2969 
L 2906 4863 
L 3481 4863 
L 3481 0 
L 2906 0 
L 2906 525 
Q 2725 213 2448 61 
Q 2172 -91 1784 -91 
Q 1150 -91 751 415 
Q 353 922 353 1747 
Q 353 2572 751 3078 
Q 1150 3584 1784 3584 
Q 2172 3584 2448 3432 
Q 2725 3281 2906 2969 
z
M 947 1747 
Q 947 1113 1208 752 
Q 1469 391 1925 391 
Q 2381 391 2643 752 
Q 2906 1113 2906 1747 
Q 2906 2381 2643 2742 
Q 2381 3103 1925 3103 
Q 1469 3103 1208 2742 
Q 947 2381 947 1747 
z
" transform="scale(0.015625)"/>
      <path id="DejaVuSans-65" d="M 3597 1894 
L 3597 1613 
L 953 1613 
Q 991 1019 1311 708 
Q 1631 397 2203 397 
Q 2534 397 2845 478 
Q 3156 559 3463 722 
L 3463 178 
Q 3153 47 2828 -22 
Q 2503 -91 2169 -91 
Q 1331 -91 842 396 
Q 353 884 353 1716 
Q 353 2575 817 3079 
Q 1281 3584 2069 3584 
Q 2775 3584 3186 3129 
Q 3597 2675 3597 1894 
z
M 3022 2063 
Q 3016 2534 2758 2815 
Q 2500 3097 2075 3097 
Q 1594 3097 1305 2825 
Q 1016 2553 972 2059 
L 3022 2063 
z
" transform="scale(0.015625)"/>
      <path id="DejaVuSans-63" d="M 3122 3366 
L 3122 2828 
Q 2878 2963 2633 3030 
Q 2388 3097 2138 3097 
Q 1578 3097 1268 2742 
Q 959 2388 959 1747 
Q 959 1106 1268 751 
Q 1578 397 2138 397 
Q 2388 397 2633 464 
Q 2878 531 3122 666 
L 3122 134 
Q 2881 22 2623 -34 
Q 2366 -91 2075 -91 
Q 1284 -91 818 406 
Q 353 903 353 1747 
Q 353 2603 823 3093 
Q 1294 3584 2113 3584 
Q 2378 3584 2631 3529 
Q 2884 3475 3122 3366 
z
" transform="scale(0.015625)"/>
      <path id="DejaVuSans-72" d="M 2631 2963 
Q 2534 3019 2420 3045 
Q 2306 3072 2169 3072 
Q 1681 3072 1420 2755 
Q 1159 2438 1159 1844 
L 1159 0 
L 581 0 
L 581 3500 
L 1159 3500 
L 1159 2956 
Q 1341 3275 1631 3429 
Q 1922 3584 2338 3584 
Q 2397 3584 2469 3576 
Q 2541 3569 2628 3553 
L 2631 2963 
z
" transform="scale(0.015625)"/>
      <path id="DejaVuSans-69" d="M 603 3500 
L 1178 3500 
L 1178 0 
L 603 0 
L 603 3500 
z
M 603 4863 
L 1178 4863 
L 1178 4134 
L 603 4134 
L 603 4863 
z
" transform="scale(0.015625)"/>
      <path id="DejaVuSans-6e" d="M 3513 2113 
L 3513 0 
L 2938 0 
L 2938 2094 
Q 2938 2591 2744 2837 
Q 2550 3084 2163 3084 
Q 1697 3084 1428 2787 
Q 1159 2491 1159 1978 
L 1159 0 
L 581 0 
L 581 3500 
L 1159 3500 
L 1159 2956 
Q 1366 3272 1645 3428 
Q 1925 3584 2291 3584 
Q 2894 3584 3203 3211 
Q 3513 2838 3513 2113 
z
" transform="scale(0.015625)"/>
      <path id="DejaVuSans-67" d="M 2906 1791 
Q 2906 2416 2648 2759 
Q 2391 3103 1925 3103 
Q 1463 3103 1205 2759 
Q 947 2416 947 1791 
Q 947 1169 1205 825 
Q 1463 481 1925 481 
Q 2391 481 2648 825 
Q 2906 1169 2906 1791 
z
M 3481 434 
Q 3481 -459 3084 -895 
Q 2688 -1331 1869 -1331 
Q 1566 -1331 1297 -1286 
Q 1028 -1241 775 -1147 
L 775 -588 
Q 1028 -725 1275 -790 
Q 1522 -856 1778 -856 
Q 2344 -856 2625 -561 
Q 2906 -266 2906 331 
L 2906 616 
Q 2728 306 2450 153 
Q 2172 0 1784 0 
Q 1141 0 747 490 
Q 353 981 353 1791 
Q 353 2603 747 3093 
Q 1141 3584 1784 3584 
Q 2172 3584 2450 3431 
Q 2728 3278 2906 2969 
L 2906 3500 
L 3481 3500 
L 3481 434 
z
" transform="scale(0.015625)"/>
      <path id="DejaVuSans-75" d="M 544 1381 
L 544 3500 
L 1119 3500 
L 1119 1403 
Q 1119 906 1312 657 
Q 1506 409 1894 409 
Q 2359 409 2629 706 
Q 2900 1003 2900 1516 
L 2900 3500 
L 3475 3500 
L 3475 0 
L 2900 0 
L 2900 538 
Q 2691 219 2414 64 
Q 2138 -91 1772 -91 
Q 1169 -91 856 284 
Q 544 659 544 1381 
z
M 1991 3584 
L 1991 3584 
z
" transform="scale(0.015625)"/>
      <path id="DejaVuSans-79" d="M 2059 -325 
Q 1816 -950 1584 -1140 
Q 1353 -1331 966 -1331 
L 506 -1331 
L 506 -850 
L 844 -850 
Q 1081 -850 1212 -737 
Q 1344 -625 1503 -206 
L 1606 56 
L 191 3500 
L 800 3500 
L 1894 763 
L 2988 3500 
L 3597 3500 
L 2059 -325 
z
" transform="scale(0.015625)"/>
      <path id="DejaVuSans-28" d="M 1984 4856 
Q 1566 4138 1362 3434 
Q 1159 2731 1159 2009 
Q 1159 1288 1364 580 
Q 1569 -128 1984 -844 
L 1484 -844 
Q 1016 -109 783 600 
Q 550 1309 550 2009 
Q 550 2706 781 3412 
Q 1013 4119 1484 4856 
L 1984 4856 
z
" transform="scale(0.015625)"/>
      <path id="DejaVuSans-Oblique-4b" d="M 1081 4666 
L 1716 4666 
L 1331 2700 
L 3781 4666 
L 4622 4666 
L 1850 2438 
L 3878 0 
L 3109 0 
L 1247 2272 
L 806 0 
L 172 0 
L 1081 4666 
z
" transform="scale(0.015625)"/>
      <path id="DejaVuSans-3d" d="M 678 2906 
L 4684 2906 
L 4684 2381 
L 678 2381 
L 678 2906 
z
M 678 1631 
L 4684 1631 
L 4684 1100 
L 678 1100 
L 678 1631 
z
" transform="scale(0.015625)"/>
      <path id="DejaVuSans-2c" d="M 750 794 
L 1409 794 
L 1409 256 
L 897 -744 
L 494 -744 
L 750 256 
L 750 794 
z
" transform="scale(0.015625)"/>
      <path id="DejaVuSans-Oblique-72" d="M 2853 2969 
Q 2766 3016 2653 3041 
Q 2541 3066 2413 3066 
Q 1953 3066 1609 2717 
Q 1266 2369 1153 1784 
L 800 0 
L 225 0 
L 909 3500 
L 1484 3500 
L 1375 2956 
Q 1603 3259 1920 3421 
Q 2238 3584 2597 3584 
Q 2691 3584 2781 3573 
Q 2872 3563 2963 3538 
L 2853 2969 
z
" transform="scale(0.015625)"/>
      <path id="DejaVuSans-35" d="M 691 4666 
L 3169 4666 
L 3169 4134 
L 1269 4134 
L 1269 2991 
Q 1406 3038 1543 3061 
Q 1681 3084 1819 3084 
Q 2600 3084 3056 2656 
Q 3513 2228 3513 1497 
Q 3513 744 3044 326 
Q 2575 -91 1722 -91 
Q 1428 -91 1123 -41 
Q 819 9 494 109 
L 494 744 
Q 775 591 1075 516 
Q 1375 441 1709 441 
Q 2250 441 2565 725 
Q 2881 1009 2881 1497 
Q 2881 1984 2565 2268 
Q 2250 2553 1709 2553 
Q 1456 2553 1204 2497 
Q 953 2441 691 2322 
L 691 4666 
z
" transform="scale(0.015625)"/>
      <path id="DejaVuSans-25" d="M 4653 2053 
Q 4381 2053 4226 1822 
Q 4072 1591 4072 1178 
Q 4072 772 4226 539 
Q 4381 306 4653 306 
Q 4919 306 5073 539 
Q 5228 772 5228 1178 
Q 5228 1588 5073 1820 
Q 4919 2053 4653 2053 
z
M 4653 2450 
Q 5147 2450 5437 2106 
Q 5728 1763 5728 1178 
Q 5728 594 5436 251 
Q 5144 -91 4653 -91 
Q 4153 -91 3862 251 
Q 3572 594 3572 1178 
Q 3572 1766 3864 2108 
Q 4156 2450 4653 2450 
z
M 1428 4353 
Q 1159 4353 1004 4120 
Q 850 3888 850 3481 
Q 850 3069 1003 2837 
Q 1156 2606 1428 2606 
Q 1700 2606 1854 2837 
Q 2009 3069 2009 3481 
Q 2009 3884 1853 4118 
Q 1697 4353 1428 4353 
z
M 4250 4750 
L 4750 4750 
L 1831 -91 
L 1331 -91 
L 4250 4750 
z
M 1428 4750 
Q 1922 4750 2215 4408 
Q 2509 4066 2509 3481 
Q 2509 2891 2217 2550 
Q 1925 2209 1428 2209 
Q 931 2209 642 2551 
Q 353 2894 353 3481 
Q 353 4063 643 4406 
Q 934 4750 1428 4750 
z
" transform="scale(0.015625)"/>
      <path id="DejaVuSans-Oblique-3c3" d="M 2219 3044 
Q 1744 3044 1422 2700 
Q 1081 2341 969 1747 
Q 844 1119 1044 756 
Q 1241 397 1706 397 
Q 2166 397 2503 759 
Q 2844 1122 2966 1747 
Q 3075 2319 2881 2700 
Q 2700 3044 2219 3044 
z
M 2309 3503 
L 4219 3500 
L 4106 2925 
L 3463 2925 
Q 3706 2438 3575 1747 
Q 3406 888 2884 400 
Q 2359 -91 1609 -91 
Q 856 -91 525 400 
Q 194 888 363 1747 
Q 528 2609 1050 3097 
Q 1484 3503 2309 3503 
z
" transform="scale(0.015625)"/>
      <path id="DejaVuSans-29" d="M 513 4856 
L 1013 4856 
Q 1481 4119 1714 3412 
Q 1947 2706 1947 2009 
Q 1947 1309 1714 600 
Q 1481 -109 1013 -844 
L 513 -844 
Q 928 -128 1133 580 
Q 1338 1288 1338 2009 
Q 1338 2731 1133 3434 
Q 928 4138 513 4856 
z
" transform="scale(0.015625)"/>
     </defs>
     <use xlink:href="#DejaVuSans-47" transform="translate(0 0.015625)"/>
     <use xlink:href="#DejaVuSans-61" transform="translate(77.490234 0.015625)"/>
     <use xlink:href="#DejaVuSans-6d" transform="translate(138.769531 0.015625)"/>
     <use xlink:href="#DejaVuSans-6d" transform="translate(236.181641 0.015625)"/>
     <use xlink:href="#DejaVuSans-61" transform="translate(333.59375 0.015625)"/>
     <use xlink:href="#DejaVuSans-20" transform="translate(394.873047 0.015625)"/>
     <use xlink:href="#DejaVuSans-76" transform="translate(426.660156 0.015625)"/>
     <use xlink:href="#DejaVuSans-73" transform="translate(485.839844 0.015625)"/>
     <use xlink:href="#DejaVuSans-20" transform="translate(537.939453 0.015625)"/>
     <use xlink:href="#DejaVuSans-73" transform="translate(569.726562 0.015625)"/>
     <use xlink:href="#DejaVuSans-70" transform="translate(621.826172 0.015625)"/>
     <use xlink:href="#DejaVuSans-6f" transform="translate(685.302734 0.015625)"/>
     <use xlink:href="#DejaVuSans-74" transform="translate(746.484375 0.015625)"/>
     <use xlink:href="#DejaVuSans-20" transform="translate(785.693359 0.015625)"/>
     <use xlink:href="#DejaVuSans-61" transform="translate(817.480469 0.015625)"/>
     <use xlink:href="#DejaVuSans-74" transform="translate(878.759766 0.015625)"/>
     <use xlink:href="#DejaVuSans-20" transform="translate(917.96875 0.015625)"/>
     <use xlink:href="#DejaVuSans-64" transform="translate(949.755859 0.015625)"/>
     <use xlink:href="#DejaVuSans-65" transform="translate(1013.232422 0.015625)"/>
     <use xlink:href="#DejaVuSans-63" transform="translate(1074.755859 0.015625)"/>
     <use xlink:href="#DejaVuSans-72" transform="translate(1129.736328 0.015625)"/>
     <use xlink:href="#DejaVuSans-65" transform="translate(1170.849609 0.015625)"/>
     <use xlink:href="#DejaVuSans-61" transform="translate(1232.373047 0.015625)"/>
     <use xlink:href="#DejaVuSans-73" transform="translate(1293.652344 0.015625)"/>
     <use xlink:href="#DejaVuSans-69" transform="translate(1345.751953 0.015625)"/>
     <use xlink:href="#DejaVuSans-6e" transform="translate(1373.535156 0.015625)"/>
     <use xlink:href="#DejaVuSans-67" transform="translate(1436.914062 0.015625)"/>
     <use xlink:href="#DejaVuSans-20" transform="translate(1500.390625 0.015625)"/>
     <use xlink:href="#DejaVuSans-6d" transform="translate(1532.177734 0.015625)"/>
     <use xlink:href="#DejaVuSans-61" transform="translate(1629.589844 0.015625)"/>
     <use xlink:href="#DejaVuSans-74" transform="translate(1690.869141 0.015625)"/>
     <use xlink:href="#DejaVuSans-75" transform="translate(1730.078125 0.015625)"/>
     <use xlink:href="#DejaVuSans-72" transform="translate(1793.457031 0.015625)"/>
     <use xlink:href="#DejaVuSans-69" transform="translate(1834.570312 0.015625)"/>
     <use xlink:href="#DejaVuSans-74" transform="translate(1862.353516 0.015625)"/>
     <use xlink:href="#DejaVuSans-79" transform="translate(1901.5625 0.015625)"/>
     <use xlink:href="#DejaVuSans-20" transform="translate(1960.742188 0.015625)"/>
     <use xlink:href="#DejaVuSans-20" transform="translate(1992.529297 0.015625)"/>
     <use xlink:href="#DejaVuSans-20" transform="translate(2024.316406 0.015625)"/>
     <use xlink:href="#DejaVuSans-28" transform="translate(2056.103516 0.015625)"/>
     <use xlink:href="#DejaVuSans-Oblique-4b" transform="translate(2095.117188 0.015625)"/>
     <use xlink:href="#DejaVuSans-3d" transform="translate(2180.175781 0.015625)"/>
     <use xlink:href="#DejaVuSans-31" transform="translate(2283.447266 0.015625)"/>
     <use xlink:href="#DejaVuSans-30" transform="translate(2347.070312 0.015625)"/>
     <use xlink:href="#DejaVuSans-30" transform="translate(2410.693359 0.015625)"/>
     <use xlink:href="#DejaVuSans-2c" transform="translate(2474.316406 0.015625)"/>
     <use xlink:href="#DejaVuSans-20" transform="translate(2506.103516 0.015625)"/>
     <use xlink:href="#DejaVuSans-20" transform="translate(2537.890625 0.015625)"/>
     <use xlink:href="#DejaVuSans-Oblique-72" transform="translate(2569.677734 0.015625)"/>
     <use xlink:href="#DejaVuSans-3d" transform="translate(2630.273438 0.015625)"/>
     <use xlink:href="#DejaVuSans-35" transform="translate(2733.544922 0.015625)"/>
     <use xlink:href="#DejaVuSans-25" transform="translate(2797.167969 0.015625)"/>
     <use xlink:href="#DejaVuSans-2c" transform="translate(2892.1875 0.015625)"/>
     <use xlink:href="#DejaVuSans-20" transform="translate(2923.974609 0.015625)"/>
     <use xlink:href="#DejaVuSans-20" transform="translate(2955.761719 0.015625)"/>
     <use xlink:href="#DejaVuSans-Oblique-3c3" transform="translate(2987.548828 0.015625)"/>
     <use xlink:href="#DejaVuSans-3d" transform="translate(3070.410156 0.015625)"/>
     <use xlink:href="#DejaVuSans-32" transform="translate(3173.681641 0.015625)"/>
     <use xlink:href="#DejaVuSans-35" transform="translate(3237.304688 0.015625)"/>
     <use xlink:href="#DejaVuSans-25" transform="translate(3300.927734 0.015625)"/>
     <use xlink:href="#DejaVuSans-29" transform="translate(3395.947266 0.015625)"/>
    </g>
   </g>
   <g id="legend_1">
    <g id="text_19">
     <!-- time to expiry -->
     <g transform="translate(426.016761 38.018438) scale(0.1 -0.1)">
      <defs>
       <path id="DejaVuSans-78" d="M 3513 3500 
L 2247 1797 
L 3578 0 
L 2900 0 
L 1881 1375 
L 863 0 
L 184 0 
L 1544 1831 
L 300 3500 
L 978 3500 
L 1906 2253 
L 2834 3500 
L 3513 3500 
z
" transform="scale(0.015625)"/>
      </defs>
      <use xlink:href="#DejaVuSans-74"/>
      <use xlink:href="#DejaVuSans-69" x="39.208984"/>
      <use xlink:href="#DejaVuSans-6d" x="66.992188"/>
      <use xlink:href="#DejaVuSans-65" x="164.404297"/>
      <use xlink:href="#DejaVuSans-20" x="225.927734"/>
      <use xlink:href="#DejaVuSans-74" x="257.714844"/>
      <use xlink:href="#DejaVuSans-6f" x="296.923828"/>
      <use xlink:href="#DejaVuSans-20" x="358.105469"/>
      <use xlink:href="#DejaVuSans-65" x="389.892578"/>
      <use xlink:href="#DejaVuSans-78" x="449.666016"/>
      <use xlink:href="#DejaVuSans-70" x="508.845703"/>
      <use xlink:href="#DejaVuSans-69" x="572.322266"/>
      <use xlink:href="#DejaVuSans-72" x="600.105469"/>
      <use xlink:href="#DejaVuSans-79" x="641.21875"/>
     </g>
    </g>
    <g id="line2d_36">
     <path d="M 426.027074 48.286719 
L 435.027074 48.286719 
L 444.027074 48.286719 
" style="fill: none; stroke: #463480; stroke-width: 1.5; stroke-linecap: square"/>
    </g>
    <g id="text_20">
     <!-- $T=1.0$ y -->
     <g transform="translate(451.227074 51.436719) scale(0.09 -0.09)">
      <defs>
       <path id="DejaVuSans-Oblique-54" d="M 378 4666 
L 4325 4666 
L 4225 4134 
L 2559 4134 
L 1759 0 
L 1125 0 
L 1925 4134 
L 275 4134 
L 378 4666 
z
" transform="scale(0.015625)"/>
      </defs>
      <use xlink:href="#DejaVuSans-Oblique-54" transform="translate(0 0.78125)"/>
      <use xlink:href="#DejaVuSans-3d" transform="translate(80.566406 0.78125)"/>
      <use xlink:href="#DejaVuSans-31" transform="translate(183.837891 0.78125)"/>
      <use xlink:href="#DejaVuSans-2e" transform="translate(247.460938 0.78125)"/>
      <use xlink:href="#DejaVuSans-30" transform="translate(279.248047 0.78125)"/>
      <use xlink:href="#DejaVuSans-20" transform="translate(342.871094 0.78125)"/>
      <use xlink:href="#DejaVuSans-79" transform="translate(374.658203 0.78125)"/>
     </g>
    </g>
    <g id="line2d_37">
     <path d="M 426.027074 61.515313 
L 435.027074 61.515313 
L 444.027074 61.515313 
" style="fill: none; stroke: #2b748e; stroke-width: 1.5; stroke-linecap: square"/>
    </g>
    <g id="text_21">
     <!-- $T=0.5$ y -->
     <g transform="translate(451.227074 64.665312) scale(0.09 -0.09)">
      <use xlink:href="#DejaVuSans-Oblique-54" transform="translate(0 0.78125)"/>
      <use xlink:href="#DejaVuSans-3d" transform="translate(80.566406 0.78125)"/>
      <use xlink:href="#DejaVuSans-30" transform="translate(183.837891 0.78125)"/>
      <use xlink:href="#DejaVuSans-2e" transform="translate(247.460938 0.78125)"/>
      <use xlink:href="#DejaVuSans-35" transform="translate(279.248047 0.78125)"/>
      <use xlink:href="#DejaVuSans-20" transform="translate(342.871094 0.78125)"/>
      <use xlink:href="#DejaVuSans-79" transform="translate(374.658203 0.78125)"/>
     </g>
    </g>
    <g id="line2d_38">
     <path d="M 426.027074 74.743906 
L 435.027074 74.743906 
L 444.027074 74.743906 
" style="fill: none; stroke: #25ac82; stroke-width: 1.5; stroke-linecap: square"/>
    </g>
    <g id="text_22">
     <!-- $T=0.1$ y -->
     <g transform="translate(451.227074 77.893906) scale(0.09 -0.09)">
      <use xlink:href="#DejaVuSans-Oblique-54" transform="translate(0 0.78125)"/>
      <use xlink:href="#DejaVuSans-3d" transform="translate(80.566406 0.78125)"/>
      <use xlink:href="#DejaVuSans-30" transform="translate(183.837891 0.78125)"/>
      <use xlink:href="#DejaVuSans-2e" transform="translate(247.460938 0.78125)"/>
      <use xlink:href="#DejaVuSans-31" transform="translate(279.248047 0.78125)"/>
      <use xlink:href="#DejaVuSans-20" transform="translate(342.871094 0.78125)"/>
      <use xlink:href="#DejaVuSans-79" transform="translate(374.658203 0.78125)"/>
     </g>
    </g>
    <g id="line2d_39">
     <path d="M 426.027074 87.9725 
L 435.027074 87.9725 
L 444.027074 87.9725 
" style="fill: none; stroke: #9bd93c; stroke-width: 1.5; stroke-linecap: square"/>
    </g>
    <g id="text_23">
     <!-- $T=0.02$ y -->
     <g transform="translate(451.227074 91.1225) scale(0.09 -0.09)">
      <use xlink:href="#DejaVuSans-Oblique-54" transform="translate(0 0.78125)"/>
      <use xlink:href="#DejaVuSans-3d" transform="translate(80.566406 0.78125)"/>
      <use xlink:href="#DejaVuSans-30" transform="translate(183.837891 0.78125)"/>
      <use xlink:href="#DejaVuSans-2e" transform="translate(247.460938 0.78125)"/>
      <use xlink:href="#DejaVuSans-30" transform="translate(279.248047 0.78125)"/>
      <use xlink:href="#DejaVuSans-32" transform="translate(342.871094 0.78125)"/>
      <use xlink:href="#DejaVuSans-20" transform="translate(406.494141 0.78125)"/>
      <use xlink:href="#DejaVuSans-79" transform="translate(438.28125 0.78125)"/>
     </g>
    </g>
   </g>
  </g>
 </g>
 <defs>
  <clipPath id="p54a9c4bd48">
   <rect x="50.14375" y="22.32" width="454.013636" height="249.072727"/>
  </clipPath>
 </defs>
</svg>
